<?xml version="1.0" encoding="UTF-8" standalone="no"?>
<!-- Creator: CorelDRAW -->
<svg
   xmlns:dc="http://purl.org/dc/elements/1.1/"
   xmlns:cc="http://web.resource.org/cc/"
   xmlns:rdf="http://www.w3.org/1999/02/22-rdf-syntax-ns#"
   xmlns:svg="http://www.w3.org/2000/svg"
   xmlns="http://www.w3.org/2000/svg"
   xmlns:sodipodi="http://sodipodi.sourceforge.net/DTD/sodipodi-0.dtd"
   xmlns:inkscape="http://www.inkscape.org/namespaces/inkscape"
   xml:space="preserve"
   width="321.9mm"
   height="356.4mm"
   style="shape-rendering:geometricPrecision; text-rendering:geometricPrecision; image-rendering:optimizeQuality; fill-rule:evenodd; clip-rule:evenodd"
   viewBox="0 0 321.9 356.4"
   sodipodi:version="0.32"
   inkscape:version="0.45.1"
   sodipodi:docname="Escudo Fuerza Aerea Colombiana2.svg"
   inkscape:output_extension="org.inkscape.output.svg.inkscape"
   sodipodi:docbase="C:\Documents and Settings\Administrador\Mis documentos\Mis imágenes"
   id="svg2"><metadata
   id="metadata262"><rdf:RDF><cc:Work
       rdf:about=""><dc:format>image/svg+xml</dc:format><dc:type
         rdf:resource="http://purl.org/dc/dcmitype/StillImage" /></cc:Work></rdf:RDF></metadata><sodipodi:namedview
   inkscape:window-height="721"
   inkscape:window-width="1024"
   inkscape:pageshadow="2"
   inkscape:pageopacity="0.0"
   guidetolerance="10.0"
   gridtolerance="10.0"
   objecttolerance="10.0"
   borderopacity="1.0"
   bordercolor="#666666"
   pagecolor="#ffffff"
   id="namedview260"
   inkscape:zoom="0.29932661"
   inkscape:cx="570.29529"
   inkscape:cy="631.4173"
   inkscape:window-x="-4"
   inkscape:window-y="-4"
   inkscape:current-layer="svg2" />
 <defs
   id="defs4">
  <style
   type="text/css"
   id="style6">
   
    .str7 {stroke:#CCCCCC;stroke-width:0.31}
    .str0 {stroke:black;stroke-width:0.39}
    .str3 {stroke:black;stroke-width:0.39;stroke-linejoin:round}
    .str1 {stroke:black;stroke-width:0.39;stroke-linecap:round;stroke-linejoin:round}
    .str2 {stroke:black;stroke-width:0.398}
    .str6 {stroke:black;stroke-width:0.45}
    .str4 {stroke:black;stroke-width:0.5}
    .str5 {stroke:black;stroke-width:1.1;stroke-linejoin:round}
    .fil1 {fill:none}
    .fil3 {fill:black}
    .fil7 {fill:#0071BC}
    .fil9 {fill:#191919}
    .fil2 {fill:#E3E4E5}
    .fil4 {fill:#E6E6E6}
    .fil6 {fill:#EAC102}
    .fil0 {fill:#ED1C24}
    .fil8 {fill:#630B57;fill-rule:nonzero}
    .fil5 {fill:#ED1C24;fill-rule:nonzero}
   
  </style>
 </defs>
 <g
   id="Capa_x0020_1">
  <metadata
   id="CorelCorpID_0Corel-Layer" />
  <sodipodi:namedview
   inkscape:window-height="721"
   inkscape:window-width="1024"
   inkscape:pageshadow="2"
   inkscape:pageopacity="0.0"
   guidetolerance="10.0"
   gridtolerance="10.0"
   objecttolerance="10.0"
   borderopacity="1.0"
   bordercolor="#666666"
   pagecolor="#ffffff"
   id="base"
   inkscape:zoom="0.28608206"
   inkscape:cx="580.92517"
   inkscape:cy="660.6496"
   inkscape:window-x="-4"
   inkscape:window-y="-4"
   inkscape:current-layer="svg2" />
 </g>
 <g
   id="aguila">
  <metadata
   id="CorelCorpID_1Corel-Layer" />
  <g
   id="_38452280">
   <g
   id="g14">
    <g
   id="g11">
     <path
   id="path7155"
   class="fil0 str0"
   d="M253.312 213.682c-0.6819,-3.1161 -6.3949,-7.8582 -8.1119,-10.1035 -8.3031,-10.8125 -14.3786,-29.8808 -17.4941,-43.0274 -2.196,0.3599 -5.5364,1.565 -7.8864,2.9041 1.3409,11.4929 8.3166,29.6148 17.8806,39.4163 -9.2744,-9.0045 -16.4409,-27.2407 -17.8806,-39.4163 -3.5951,0.2758 -4.9749,0.5007 -8.1727,0.9651 3.7423,13.4366 9.0862,31.9927 20.1673,41.8351 4.0655,3.3793 9.6978,5.615 15.8819,7.9097 2.082,0.8898 5.1336,1.4226 5.6159,-0.4831z" />
     <path
   id="path7155_0"
   class="fil0 str0"
   d="M279.589 211.278c-1.1551,-4.3648 -9.5218,-10.7305 -12.0867,-13.803 -12.4003,-14.7936 -22.483,-36.711 -27.6932,-55.1109 -3.7166,-0.519 -7.2352,-0.2458 -10.6452,-0.1072 2.6003,16.1671 13.5725,41.372 27.6932,54.662 -13.6624,-12.1806 -24.9113,-37.5357 -27.6932,-54.662 -5.065,0.6022 -7.0017,1.0019 -11.4937,1.8472 6.1141,18.7728 14.8061,44.6879 31.074,57.9462 5.9542,4.5366 14.0531,7.3642 22.9357,10.2425 2.9977,1.1347 7.3441,1.7074 7.9091,-1.0148z" />
     <path
   id="path7155_1"
   class="fil0 str0"
   d="M308.876 197.729c-2.1863,-4.3505 -12.2984,-9.2597 -15.6526,-11.9459 -16.202,-12.9223 -31.6174,-33.8481 -41.1866,-52.1148 -3.9688,0.2517 -7.5527,1.2955 -11.0547,2.1742 6.6718,16.2116 23.7071,40.4488 41.0851,51.642 -16.5067,-10.1583 -33.8195,-34.5131 -41.0851,-51.642 -5.1116,1.7228 -5.374,1.8714 -9.8369,3.7272 8.8495,19.686 23.8174,44.5907 43.6787,55.0643 7.1979,3.5005 16.2306,4.7395 26.087,5.8635 3.3633,0.5515 7.9966,0.2211 7.9651,-2.7685z" />
     <path
   id="path7153"
   class="fil0 str0"
   d="M309.566 171.691c-2.5586,-2.5595 -5.1765,-5.0735 -7.9104,-7.5433 -5.1875,-4.74 -10.6096,-9.344 -16.154,-13.7142 -5.3279,-3.9821 -9.6604,-8.5041 -12.9407,-13.5644 -2.2414,-3.4544 -4.8305,-6.8248 -7.7674,-10.1109 -1.4375,-1.7135 -6.0222,-4.4968 -7.2342,-4.3449 -0.5016,1.1779 -3.8776,3.0242 -4.4307,3.3344 7.8768,14.8874 24.1696,31.8669 37.2904,36.4799 -13.7437,-4.9376 -29.6545,-22.2812 -37.2904,-36.4799 -5.2748,0.9799 -6.182,0.5666 -9.4131,2.2468 8.883,12.8616 19.6356,28.4891 33.343,36.0791 9.0454,4.5301 19.4525,7.8651 31.1047,10.0491 2.0684,0.0193 2.5546,-0.775 1.4028,-2.4317z" />
     <path
   id="path7155_2"
   class="fil0 str0"
   d="M320.189 138.814c-2.9774,-2.3608 -11.7117,-2.5852 -14.959,-3.4033 -15.6686,-3.9143 -31.9087,-14.5216 -44.6838,-24.3097 -2.7067,1.4434 -4.6357,2.4467 -6.8067,4.1819 9.925,9.553 28.1753,22.8033 44.2107,24.8839 -15.1703,-1.5599 -33.6789,-14.7773 -44.2107,-24.8839 -3.0232,2.8424 -4.426,3.3646 -6.9491,6.0934 11.2049,9.5271 19.5034,15.8529 33.5261,22.2826 3.24,1.9492 10.0683,3.5609 14.9086,3.8456 6.2192,0.164 12.9796,-1.8474 20.2808,-4.2024 2.547,-0.6856 5.695,-2.3964 4.6831,-4.4881z" />
     <path
   id="path7155_3"
   class="fil0 str0"
   d="M320.541 116.933c-3.0659,-1.8655 -11.2606,-1.0715 -14.3949,-1.4633 -15.1196,-1.8597 -31.5715,-9.9127 -44.6854,-17.5978 -2.3591,1.6609 -4.0434,2.8209 -5.8667,4.6931 10.4206,7.7928 29.0677,18.0863 44.3115,18.1892 -14.3728,0.2848 -33.2574,-9.9484 -44.3115,-18.1892 -2.4883,3.0055 -3.7379,3.6551 -5.7719,6.497 11.6144,7.6216 20.1292,12.5833 34.0095,16.9845 3.2623,1.4505 9.84,2.1728 14.4004,1.8828 5.8355,-0.5615 11.9178,-3.2194 18.4648,-6.261 2.3001,-0.9339 5.04,-2.8956 3.8442,-4.7353z" />
     <path
   id="path7155_4"
   class="fil0 str0"
   d="M317.188 86.7233c-3.3462,-0.9408 -10.6302,2.3326 -13.6159,2.8881 -14.394,2.7105 -28.0422,0.727 -42.2711,-3.0019 -0.1958,2.3529 -0.2397,6.4401 -2.4133,7.5447 12.2241,3.7748 26.9929,6.1021 40.4818,2.6357 -12.9493,3.4186 -27.851,1.1775 -40.4816,-2.6359 -3.0498,0.7261 -5.1531,0.4337 -8.1734,-0.4919 0.2238,2.2663 0.018,4.4796 -0.6143,6.5673 15.0062,4.815 34.3788,10.5336 49.7964,4.2508 5.1881,-2.3269 9.9999,-6.8277 15.1278,-11.8531 1.8402,-1.6306 3.7882,-4.4234 2.1636,-5.9038z" />
     <path
   id="path7155_5"
   class="fil0 str0"
   d="M304.372 58.1416c-3.5624,0.6387 -6.6677,1.9142 -9.2972,3.7738 -12.6642,8.9939 -28.5628,12.6078 -42.1268,16.7386 -0.0469,4.3626 0.4879,6.5578 -2.3887,10.0697 12.8402,-3.3508 25.8264,-7.4402 37.7459,-14.9167 -11.9195,7.4765 -24.9057,11.5657 -37.7458,14.9164 -1.001,1.0516 -3.6333,4.6292 -4.7585,6.1562 17.2912,-2.4671 36.179,-3.4592 49.2102,-16.3932 4.0333,-4.4897 7.0034,-9.5423 10.8889,-15.8852 1.1137,-2.337 0.6045,-3.8233 -1.528,-4.4596z" />
     <path
   id="path7155_6"
   class="fil0 str0"
   d="M290.151 44.9271c-2.9664,0.949 -5.4603,2.3535 -7.4725,4.1691 -9.6865,8.7745 -21.8264,16.4134 -33.359,21.8443 0.0701,0.4761 0.2669,1.0034 0.205,1.5482 -0.2913,1.7785 -0.9769,3.7389 -1.5397,4.6265 10.5577,-4.2626 20.4125,-7.6952 30.5877,-17.905 -9.7404,10.0274 -20.03,13.6424 -30.5877,17.905 -0.333,0.9659 -1.8517,5.104 -2.4331,6.9737 16.129,-5.401 28.7286,-10.0324 38.1946,-21.9778 2.8773,-4.1002 5.7673,-8.2175 8.2816,-13.7883 0.6544,-2.0137 0.0289,-3.1454 -1.8769,-3.3957z" />
     <path
   id="path7153_7"
   class="fil0 str0"
   d="M278.902 32.6518c-1.673,2.0931 -2.9493,3.6281 -5.7137,6.0113 -3.8152,3.7671 -6.5705,5.8385 -10.3409,10.4187 -4.3561,5.6355 -15.2362,20.3043 -20.5292,25.0926 0.9234,0.3026 3.8085,0.3485 4.0749,0.7369 9.518,-7.0452 18.8201,-17.0117 24.9901,-27.4191 -6.2401,10.6122 -15.5259,20.5068 -24.9901,27.4193 -0.2298,1.1616 -0.8871,1.3631 -0.1124,2.4009 9.291,-7.2211 19.5621,-12.2245 26.6252,-23.2791 4.1934,-7.3665 6.6486,-12.3118 7.5265,-20.5407 0.131,-1.1748 -0.6163,-1.8694 -1.5304,-0.8408z" />
     <path
   id="path7153_8"
   class="fil0 str0"
   d="M271.253 24.0134c-1.5484,2.1835 -2.7334,3.7876 -5.3546,6.3219 -3.5899,3.9749 -6.2202,6.1973 -9.718,10.9816 -4.0211,5.8705 -14.0301,21.1253 -19.0358,26.2027 0.9394,0.2504 3.8225,0.1343 4.1112,0.5072 9.0925,-7.5674 17.7996,-18.0392 23.3541,-28.7757 -5.6125,10.9448 -14.3076,21.344 -23.3541,28.7759 -0.1619,1.1726 2.0338,2.7013 2.8677,3.694 8.8558,-7.7303 15.9786,-14.5922 22.3871,-26.0248 3.758,-7.5895 5.9215,-12.6645 6.3193,-20.9291 0.0624,-1.1804 -0.7241,-1.8319 -1.5769,-0.7537z" />
     <path
   id="path7153_9"
   class="fil0 str0"
   d="M262.202 15.0798c-1.1333,2.3329 -2.0112,4.0544 -4.1165,6.89 -2.802,4.3667 -4.9661,6.9049 -7.5498,12.0332 -2.9107,6.2507 -10.0523,22.4254 -14.0344,28.0683 0.9408,0.0945 3.686,-0.4635 4.0225,-0.1509 7.4994,-8.6634 14.1622,-20.0512 17.7603,-31.204 -3.6203,11.3615 -10.2832,22.6778 -17.7602,31.2042 0.0333,1.1491 0.107,3.3427 1.066,4.165 7.2461,-8.7828 13.9381,-15.1152 19.5526,-29.4856 2.3819,-7.8578 3.6399,-13.058 2.6922,-21.0422 -0.1299,-1.1411 -0.9886,-1.6438 -1.6327,-0.478z" />
     <path
   id="path7153_10"
   class="fil0 str0"
   d="M248.876 5.903c-0.367,2.6624 -0.6793,4.6398 -1.8457,8.1026 -1.361,5.1954 -2.6819,8.3821 -3.5803,14.2632 -0.859,7.0938 -2.696,25.3288 -4.812,32.1552 0.9617,-0.1999 2.3796,-2.4009 2.8139,-2.1964 4.6474,-10.8071 8.4774,-23.3465 8.6038,-35.6272 -0.1728,12.3041 -3.9572,24.8464 -8.604,35.6273 0.4047,1.127 1.0559,2.4254 2.2709,2.9403 4.3312,-10.9516 10.6705,-20.4637 11.0652,-33.6355 -0.184,-8.5197 -0.621,-14.0586 -4.1412,-21.6654 -0.4977,-1.0889 -1.5101,-1.3187 -1.7706,0.0359z" />
     <path
   id="path7151"
   class="fil0 str0"
   d="M226.722 1.7659c5.6391,5.1153 8.6443,13.5932 9.269,20.9791 0.4559,5.3892 -0.933,10.9888 -1.7641,16.2736 -0.4836,3.0762 -0.8829,6.1413 -1.1422,9.2076 0.0102,1.1825 0.5595,5.0245 1.3789,5.5864 0.854,1.026 1.2481,0.734 2.2844,0.4213 0.8368,0.1156 2.1636,-1.5493 2.5986,-2.64 2.3137,-11.9456 4.882,-25.4156 0.5015,-34.841 4.256,9.2722 1.8122,22.8954 -0.5015,34.841 -0.435,1.0907 -1.7618,2.7556 -2.5986,2.64 0.2331,0.3408 2.1965,1.9496 2.3268,2.0662 3.0039,-4.2522 8.0342,-21.787 6.8018,-33.0003 -0.3943,-4.5759 -4.3342,-19.6342 -19.1546,-21.5339z" />
     <g
   id="g27">
      <path
   id="path7151_11"
   class="fil0 str0"
   d="M230.841 51.6976c2.137,-3.6214 4.1602,-7.8198 5.1038,-11.4396 0.8648,-3.0726 2.3295,-13.8429 -4.9725,-18.7743 1.7504,4.7315 1.3371,10.9915 -0.0649,15.9481 -1.0229,3.6166 -3.0594,6.9098 -4.7306,10.1376 -0.2431,0.4696 -0.4835,0.9403 -0.7205,1.4122l3.8363 1.7946c0,0 0,0 0,0l1.5484 0.9214z" />
      <path
   id="_38951408"
   class="fil1 str0"
   d="M234.326 34.499c-0.5945,6.3332 -3.4463,11.2752 -6.0448,15.8041" />
     </g>
    </g>
    <g
   id="g34">
     <path
   id="_38886416"
   class="fil0"
   d="M250.703 46.5022c5.2563,2.118 6.2549,11.4265 2.2917,18.9871 1.8804,-0.5673 3.8644,-0.5755 6.0638,0.3106 5.9649,2.4036 5.7509,15.1613 -2.5778,21.7803 12.9801,4.5685 7.9345,18.3192 -2.6677,21.7221 12.7334,9.4622 7.3032,23.0218 -3.8368,21.8726 7.8294,11.8912 -0.7969,23.233 -10.1082,17.8253 2.1691,14.4347 -11.999,18.3526 -15.7329,9.7343l-1.5391 -31.3391c3.437,-0.1256 7.6355,-3.7792 8.5644,-9.2491 3.6923,-21.7433 -4.6571,-34.7113 -8.9118,-42.1906 -10.0838,-17.7268 9.4083,-31.8321 3.4938,-43.5967 1.9088,1.8739 3.7863,3.7851 4.2726,6.5705 5.5047,-0.3361 10.6136,2.5974 10.8348,9.1302 3.0264,-1.9957 6.1324,-3.0567 9.8532,-1.5575z" />
     <g
   id="g37">
      <path
   id="_38949024"
   class="fil1 str1"
   d="M239.867 148.996c2.1729,14.4385 -11.9979,18.3582 -15.7322,9.739" />
      <path
   id="_38947680"
   class="fil1 str1"
   d="M237.742 59.1492c7.4226,-14.3039 0.2649,-20.7077 -7.7269,-20.2197 -0.4863,-2.7854 -2.3638,-4.6966 -4.2726,-6.5705 5.9145,11.7646 -13.5776,25.8699 -3.4938,43.5967 4.2547,7.4793 12.6041,20.4473 8.9118,42.1906 -0.9289,5.4699 -5.1274,9.1235 -8.5644,9.2491" />
      <path
   id="_38946736"
   class="fil1 str1"
   d="M225.255 56.7619c-4.7528,13.8619 6.7771,22.8369 9.8113,35.382 2.3787,9.8342 2.9982,21.8234 0.3543,30.8278 -1.8966,6.4596 -5.2939,11.5974 -12.4395,12.2669" />
      <path
   id="_38946016"
   class="fil1 str1"
   d="M227.339 52.0536c7.2721,-3.6156 11.3114,2.9068 10.297,10.7139 -0.6086,4.6842 -5.6743,12.0733 -9.0362,14.8645" />
      <path
   id="_38945096"
   class="fil1 str1"
   d="M237.636 62.7675c5.1702,-0.8398 11.4687,3.2684 10.3949,10.2715 -0.6578,4.2897 -3.4512,9.208 -8.1095,11.7438" />
      <path
   id="_38944152"
   class="fil1 str1"
   d="M243.578 81.9652c4.9337,1.019 8.9651,4.5853 8.9651,9.4134 0,4.5816 -3.3173,7.4819 -5.041,8.8989" />
      <path
   id="_38943432"
   class="fil1 str1"
   d="M243.271 96.7999c2.242,1.4369 3.5313,2.3549 5.0969,4.6378 4.2638,6.2171 3.8361,14.9472 -1.9268,14.9472 -2.3178,0 -7.2117,-2.4227 -9.3667,-3.9959" />
      <path
   id="_38942512"
   class="fil1 str1"
   d="M243.533 115.724c2.7866,4.2238 3.6346,10.8495 1.3911,14.0181 -2.8844,4.0739 -8.9579,0.4062 -10.9235,-2.8612" />
      <path
   id="_38941000"
   class="fil1 str1"
   d="M237.329 130.157c1.4907,4.0162 3.8145,12.2822 -0.4204,15.5381 -4.5393,3.4897 -8.7661,-1.517 -9.3518,-4.3923" />
      <path
   id="_38940080"
   class="fil1 str1"
   d="M228.154 142.901c0.3478,1.412 -1.6138,5.357 -4.0182,5.967" />
      <path
   id="_38939160"
   class="fil1 str1"
   d="M240.85 48.0597c3.0264,-1.9957 6.1324,-3.0567 9.8532,-1.5575 6.8127,2.7451 6.4729,17.5694 -2.5512,25.0119" />
      <path
   id="_38938224"
   class="fil1 str1"
   d="M252.995 65.4893c1.8804,-0.5673 3.8644,-0.5755 6.0638,0.3106 6.8129,2.7453 5.5652,18.9981 -6.6279,24.1835" />
      <path
   id="_38937288"
   class="fil1 str1"
   d="M256.481 87.5802c14.0014,4.928 7.0289,20.5399 -5.2673,22.324" />
      <path
   id="_38936568"
   class="fil1 str1"
   d="M253.813 109.302c14.5404,10.805 5.3963,26.9527 -8.8886,20.4399" />
      <path
   id="_38935848"
   class="fil1 str1"
   d="M249.976 131.175c8.8226,13.3997 -3.2504,26.1018 -13.6528,14.9255" />
      <path
   id="_38934928"
   class="fil1 str1"
   d="M248.617 51.7647c-0.0862,4.7542 -1.7695,8.3425 -4.7197,12.274" />
      <path
   id="_38934008"
   class="fil1 str1"
   d="M234.818 42.8551c1.0564,2.4514 -0.0322,6.0631 -1.275,8.6686" />
      <path
   id="_38933064"
   class="fil1 str1"
   d="M232.456 57.5626c-0.435,6.2536 -3.9238,10.8603 -7.0149,13.0932" />
      <path
   id="_38931976"
   class="fil1 str1"
   d="M242.712 69.4619c-1.4554,5.0424 -4.8155,10.8253 -11.2592,13.5514" />
      <path
   id="_38931088"
   class="fil1 str1"
   d="M248.741 93.1385c-3.5914,-3.9467 -8.994,-3.4527 -14.2069,-2.9036" />
      <path
   id="_38930200"
   class="fil1 str1"
   d="M246.752 110.591c-2.2716,-3.5683 -5.5629,-6.554 -9.9195,-7.7749" />
      <path
   id="_38929280"
   class="fil1 str1"
   d="M242.276 127.312c0.1821,-3.6913 -2.9625,-7.9185 -5.8095,-9.0023" />
      <path
   id="_38928336"
   class="fil1 str1"
   d="M231.585 130.852c-0.5307,4.4964 0.0339,10.9236 3.0448,12.5098" />
      <path
   id="_38927416"
   class="fil1 str1"
   d="M239.842 131.306c2.3206,3.0017 4.6418,10.1557 5.1062,12.91" />
      <path
   id="_38926496"
   class="fil1 str1"
   d="M248.082 116.109c2.7112,2.4525 5.3512,5.7718 5.5687,8.9459" />
      <path
   id="_38925576"
   class="fil1 str1"
   d="M248.806 99.1364c3.2796,1.4974 9.1414,1.1124 12.1178,-0.1398" />
      <path
   id="_38924416"
   class="fil1 str1"
   d="M258.438 71.1704c-3.2902,6.5822 -7.0013,8.9296 -14.8599,10.7948" />
      <path
   id="_38922864"
   class="fil1 str1"
   d="M230.69 145.855c0.9539,3.7825 0.9511,9.8556 0.614,12.3333" />
     </g>
    </g>
   </g>
   <g
   id="g67">
    <path
   id="path4190"
   class="fil2 str2"
   d="M128.568 40.6194c0.0723,0.2833 -0.1378,5.0318 4.5928,6.6194 4.4771,1.4492 7.6872,-1.3732 13.5188,-1.1354 4.5439,-0.0666 9.2029,2.7403 13.4717,4.0071l-0.3552 0.9834c-3.2862,-0.9864 -9.4462,-3.5737 -12.4812,-3.6515 -7.3264,0.2355 -9.4198,4.1475 -16.0288,1.6424 -7.1168,-3.2624 -3.7567,-7.0015 -2.7181,-8.4654z" />
    <path
   id="path4215"
   class="fil0 str2"
   d="M184.73 110.731c-1.7923,-3.2359 -1.9297,-5.0114 -3.5705,-7.7721 1.5602,0.6144 2.3999,1.6641 4.0127,3.0249 -1.0139,-6.9869 -1.8558,-8.0859 -3.8249,-10.2205 1.2084,-0.0284 2.4733,0.4412 3.9495,1.0909 -1.0691,-4.9423 -3.1148,-6.8742 -4.4514,-8.4164 -0.4764,-0.0483 1.8519,1.0598 4.9008,-0.9419 -6.6259,-2.5046 -3.8907,-6.0387 -6.8678,-10.1182 0.9303,-0.8732 3.1971,1.6775 6.3813,0.879 -2.7177,-2.1642 -5.8621,-5.808 -6.5409,-7.9226 2.5263,1.455 5.2613,-0.23 6.0262,-2.8473 -2.0644,1.4505 -6.0683,-0.8136 -5.1942,-5.2435 0.6621,-2.9053 0.368,-2.6731 -0.3728,-5.7475 1.3243,0.2221 1.6202,0.8287 2.7422,1.4569 -0.148,-1.4175 -1.1354,-3.7409 -2.2934,-4.6385 0.0844,-2.445 -2.3401,-6.0578 -3.1889,-8.4647 1.4508,0.1722 3.1792,1.1885 4.0411,1.757 -1.4747,-4.1205 -5.1045,-8.6324 -9.254,-11.7663 1.9035,-0.5784 2.891,-1.7512 3.4273,-3.0004 -1.4018,0.4736 -5.5267,1.0823 -7.0868,0.8823 -5.5775,-0.4544 -7.9049,-1.1581 -13.0588,-2.0776 -4.8567,-0.7013 -7.3491,-0.0611 -11.1024,3.0852l1.4249 2.9158 3.5261 8.6606c1.5705,0.729 10.8126,1.6556 8.4251,6.1689l-4.116 -0.3283 0.373 2.704c5.3726,0.0348 0.2018,13.4772 -5.9169,12.1466 1.0058,1.9425 2.9539,2.7697 5.17,1.9804 -0.8529,0.9609 -0.5317,2.9328 -2.1953,4.3921 -2.8188,2.0672 -1.8488,4.4023 -4.9427,5.0364 2.8764,1.5444 4.5061,0.4789 6.6051,-0.7108 -1.9714,1.392 -4.4448,3.9006 -4.8965,6.9388 -0.8663,3.2435 -1.7574,5.193 -4.5404,7.0409 1.8089,0.3662 4.2902,0.6914 5.9434,-1.6547 -0.5503,5.5187 -2.304,3.9313 -4.7171,9.0856 1.8377,-1.4326 2.5843,-0.4394 3.9692,-1.3609 -1.9714,2.7619 -3.5563,4.1408 -4.4705,11.0747 2.3292,-0.6666 3.7528,-3.7359 5.9856,-3.8332 -0.7077,3.1727 -2.6629,4.0807 -4.1282,6.97l39.8269 -0.2256z" />
    <path
   id="path4405"
   class="fil3 str2"
   d="M155.333 45.5511c2.1565,0.4018 3.6176,1.1305 4.3133,2.1812 0.7258,1.1066 1.2157,2.2092 1.4689,3.3081 0.2573,1.5448 0.2002,2.8774 -0.2286,3.9531 0.4288,-1.0757 0.4859,-2.4083 0.2286,-3.9531 -0.2532,-1.0989 -0.7428,-2.2016 -1.4689,-3.3081 -0.6957,-1.0507 -2.1568,-1.7794 -4.3133,-2.1812z" />
    <path
   id="path4407"
   class="fil3 str2"
   d="M167.651 52.1009c0.9272,0.7963 1.4595,1.6039 1.5974,2.4227 0.9938,-1.1399 1.2313,-2.4775 0.6926,-3.953 0.5387,1.4755 0.3016,2.8129 -0.6926,3.953 -0.1379,-0.8188 -0.6702,-1.6264 -1.5974,-2.4227z" />
    <path
   id="path4409"
   class="fil3 str2"
   d="M171.083 57.3979c1.2313,1.1962 1.9316,2.5053 2.1251,3.9723 1.1603,-1.6492 1.6245,-3.3925 1.2866,-5.1304 0.3379,1.7379 -0.1263,3.4812 -1.2866,5.1304 -0.1935,-1.467 -0.8938,-2.7761 -2.1251,-3.9723z" />
    <path
   id="path4411"
   class="fil3 str2"
   d="M166.484 64.104c1.1068,-0.8097 1.6654,-1.7677 1.7184,-2.8576 -0.053,1.0899 -0.6116,2.0479 -1.7184,2.8576 -0.0398,-0.6375 -0.3255,-1.1717 -0.8572,-1.6024 0.5317,0.4307 0.8174,0.9649 0.8572,1.6024z" />
    <path
   id="path7732"
   class="fil2 str2"
   d="M142.965 48.7288c-1.7379,5.024 8.7062,4.0846 11.5755,5.7142l2.3931 -2.9415c-4.9603,-1.627 -7.7539,1.1358 -13.9686,-2.7727z" />
    <path
   id="path7730"
   class="fil2 str2"
   d="M143.677 33.6585c-5.2881,-0.0513 -14.5613,4.2494 -7.8433,9.6303 0.1107,-0.8883 0.365,-1.5678 0.7123,-2.0699 0.5426,-0.6799 1.3004,-1.0469 2.3239,-1.0695 1.9324,-0.2958 3.9088,1.208 6.029,3.2415 1.9818,2.0883 6.2901,2.4411 9.2217,3.5098 1.9084,-3.0657 -7.9307,-8.2798 -10.4436,-13.2422z" />
    <path
   id="path4205"
   class="fil4 str2"
   d="M150.113 35.8874c2.1378,-0.2962 5.6789,1.9601 8.4216,1.2601 -0.9875,1.3098 -1.8296,3.4405 -6.2617,2.6129 -2.2894,-0.4505 -3.5481,-2.3243 -2.1599,-3.873z" />
    <path
   id="path4211"
   class="fil1 str2"
   d="M150.448 35.8627c-0.8812,-0.0679 -1.5484,-0.0008 -2.046,0.1732" />
    <path
   id="path4428"
   class="fil0 str2"
   d="M169.593 93.5304c1.7384,0.9667 2.8508,2.0803 3.3378,3.3407 1.2123,-2.1419 1.1539,-4.3517 -0.1867,-6.5279 1.3406,2.1762 1.3994,4.3858 0.1867,6.5279 -0.487,-1.2604 -1.5994,-2.374 -3.3378,-3.3407z" />
    <path
   id="path4430"
   class="fil0 str2"
   d="M171.259 100.145c-0.9007,0.576 -1.4915,1.2872 -1.7929,2.158 -0.5019,-1.1512 -0.5673,-2.2729 -0.1439,-3.291 -0.4234,1.0181 -0.358,2.1398 0.1439,3.291 0.3014,-0.8708 0.8922,-1.582 1.7929,-2.158z" />
    <path
   id="path4440"
   class="fil0 str2"
   d="M162.3 96.0305c-1.3194,1.0705 -2.0632,2.7655 -2.2669,5.0465 -2.708,-3.9255 -2.0227,-6.9051 0.5864,-9.3483m1.6805 4.3018l0 0 0 0z" />
    <path
   id="path4442"
   class="fil0 str2"
   d="M164.873 81.167c-0.489,1.4259 -2.5039,4.5459 0.3936,7.7714 0.2819,-1.0261 -0.1665,-1.3568 2.4253,-4.5823m-2.8189 -3.1891l0 0 0 0z" />
    <path
   id="path4431"
   class="fil0 str2"
   d="M166.032 73.7527c1.5606,0.586 1.9587,1.5528 1.2481,2.8154 0.7106,-1.2626 0.3125,-2.2294 -1.2481,-2.8154 -0.3715,1.6658 -1.3326,2.8547 -2.9162,3.5718 0.7069,-1.4911 0.8919,-3.0501 0.5551,-4.6765 -0.7292,0.119 -1.3726,-0.2727 -1.8762,-1.2605 -2.0467,0.1813 -3.3372,-0.8308 -3.8386,-3.0418 -0.3994,-1.387 -0.1651,-2.6482 0.6424,-3.7355 -0.8075,1.0873 -1.0418,2.3485 -0.6424,3.7355 0.5014,2.211 1.7919,3.2231 3.8386,3.0418 -0.3943,-0.7381 -0.7384,-1.7902 -1.0051,-3.1989 0.2667,1.4087 0.6108,2.4608 1.0051,3.1989 0.5036,0.9878 1.147,1.3795 1.8762,1.2605 0.3368,1.6264 0.1518,3.1854 -0.5551,4.6765 1.5836,-0.7171 2.5447,-1.906 2.9162,-3.5718 0.2172,-0.9525 0.2046,-2.0589 0.0288,-3.3294 0.1758,1.2705 0.1884,2.3769 -0.0288,3.3294z" />
    <path
   id="path4437"
   class="fil0 str2"
   d="M172.419 77.9757c2.5589,1.684 3.7381,3.6698 3.6096,5.9836 -0.765,-0.7157 -1.6346,-1.0323 -2.695,-0.8591 1.4576,1.4052 2.0678,2.8343 1.8583,4.2442 0.2095,-1.4099 -0.401,-2.8389 -1.8583,-4.2442 1.0604,-0.1732 1.93,0.1434 2.695,0.8591 0.1285,-2.3138 -1.0507,-4.2996 -3.6096,-5.9836z" />
    <path
   id="path4439"
   class="fil3 str2"
   d="M169.316 39.0683c1.1446,3.1678 0.6715,5.0014 -1.5103,5.6386 2.1818,-0.6372 2.6549,-2.4708 1.5103,-5.6386z" />
    <path
   id="path4443"
   class="fil0 str2"
   d="M164.834 38.5668c1.9721,3.7233 1.5592,5.6049 -1.1935,5.5758 2.7527,0.0291 3.1656,-1.8525 1.1935,-5.5758z" />
    <path
   id="path4470"
   class="fil0 str2"
   d="M156.2 83.7632c-2.5589,1.684 -3.738,3.6697 -3.6097,5.9837 0.7651,-0.7159 1.6347,-1.0324 2.6951,-0.8592 -1.4577,1.4052 -2.0678,2.8341 -1.8582,4.2442 -0.2096,-1.4101 0.4008,-2.839 1.8582,-4.2442 -1.0604,-0.1732 -1.93,0.1433 -2.6951,0.8592 -0.1283,-2.314 1.0508,-4.2997 3.6097,-5.9837z" />
    <path
   id="path4442_27"
   class="fil0 str2"
   d="M172.924 65.0588c0.489,1.4259 2.5039,4.5459 -0.3936,7.7714 -0.2819,-1.0261 0.1665,-1.3568 -2.4254,-4.5823m2.819 -3.1891l0 0 0 0z" />
    <path
   id="path4442_28"
   class="fil0 str2"
   d="M157.951 74.7277c-0.3867,1.1276 -1.9803,3.5952 0.3113,6.1461 0.223,-0.8115 -0.1317,-1.073 1.9181,-3.624m-2.2294 -2.5221l0 0 0 0z" />
    <path
   id="path4442_29"
   class="fil0 str2"
   d="M160.149 57.2331c-0.3867,1.1277 -1.9803,3.5952 0.3113,6.1461 0.223,-0.8115 -0.1317,-1.073 1.9182,-3.6239m-2.2295 -2.5222l0 0 0 0z" />
    <path
   id="path4442_30"
   class="fil0 str2"
   d="M173.569 44.1417c0.3672,1.0708 1.8803,3.414 -0.2956,5.8362 -0.2117,-0.7706 0.125,-1.0188 -1.8215,-3.4412m2.1171 -2.395l0 0 0 0z" />
    <path
   id="_38769760"
   class="fil3"
   d="M152.063 36.3554c-0.7921,-0.0803 -1.499,0.493 -1.5788,1.2806 -0.0798,0.7876 0.4975,1.4912 1.2897,1.5715 0.7921,0.0802 1.499,-0.4931 1.5789,-1.2807 0.0798,-0.7876 -0.4977,-1.4911 -1.2898,-1.5714z" />
    <path
   id="_38768336"
   class="fil2"
   d="M151.483 36.9745c-0.4089,-0.0415 -0.7739,0.2545 -0.8152,0.6612 -0.0411,0.4066 0.257,0.7698 0.666,0.8113 0.409,0.0415 0.7738,-0.2545 0.8151,-0.6611 0.0412,-0.4068 -0.2569,-0.7699 -0.6659,-0.8114z" />
   </g>
   <g
   id="g144">
    <path
   id="_38764288"
   class="fil0 str0"
   d="M97.951 257.55c8.9028,-2.7651 9.3941,-2.4732 22.4383,-3.5477 21.9007,-2.8206 19.2025,-9.5498 26.5971,-24.6247l14.0216 -0.0192 14.0217 0.0192c7.3946,15.0749 4.6964,21.8041 26.5971,24.6247 13.0443,1.0745 13.5355,0.7826 22.4383,3.5477 6.2707,1.5031 11.6978,0.1844 15.1929,-3.3354 -0.0953,2.9896 -1.1621,5.4991 -3.3152,7.1355 6.8399,4.413 16.2719,6.5965 19.7449,5.7361 -0.929,4.1938 -5.9691,4.6599 -8.9104,4.7164 4.6868,16.2175 -9.6746,28.0978 -24.0249,21.3479 -2.7716,-1.7943 -6.1277,1.4595 -9.1277,2.3466 1.0286,-1.2575 3.082,-3.7127 6.3654,-4.4677 -3.1027,-0.8216 -5.2383,-1.6738 -8.5344,-4.822 3.1981,0.1691 7.4141,1.0437 9.6004,2.2617 -1.0063,-1.6109 -0.4634,-4.2959 -0.284,-6.6653 0.9177,1.3127 1.8405,6.1149 2.9032,7.0783 13.6905,5.3777 20.8184,-6.7761 13.9719,-16.1226 -2.2309,-3.0454 -6.8629,-5.6644 -12.5142,-6.2474 0.3206,0.8826 3.126,3.8957 -0.4867,9.0841 -0.958,-3.7983 -2.8955,-9.6953 -16.8728,-11.4416 -8.2247,-0.7064 -16.9376,0.0108 -23.8944,-1.6617 -1.3929,1.1639 -2.5617,3.4976 -1.7745,5.7222 -2.2229,-1.0542 -3.0587,-4.1648 -2.2034,-6.7084 -2.6831,-1.0515 -6.4483,-1.3914 -8.0295,1.192 -2.6192,4.8742 3.7824,8.7859 9.1131,8.9182 2.345,-1.1108 6.4684,-1.8735 8.8133,-1.1653 -1.4549,0.3164 -4.2016,0.7828 -5.0386,2.1162 6.4258,2.3234 23.2176,-4.7961 24.1236,4.7354 0.1361,3.7222 -3.7736,5.0179 -7.0162,4.1078 2.9025,-0.9287 3.8583,-3.7372 2.5274,-4.9394 -2.6824,-2.0982 -11.4303,0.7558 -17.4035,1.1804 -4.2349,0.9491 -14.1731,-0.3709 -18.5306,-2.9786 4.907,9.4633 -2.841,17.8985 21.6153,20.7788 3.372,0.2037 9.4804,-3.3417 3.8801,-10.9587 9.773,1.9786 7.0014,10.2951 4.9971,12.4481 4.084,0.7761 10.9964,1.387 13.3024,8.5008 1.8294,7.4325 -4.8186,11.8987 -9.9868,7.2315 3.2767,0.3376 6.9297,-0.9454 4.994,-6.2544 -1.5962,-3.9098 -7.8958,-4.1783 -11.7322,-3.5078 -2.5527,1.6685 1.1203,3.9906 5.3039,6.525 -5.6265,1.0232 -14.8091,-3.6067 -18.2956,-7.4723 -0.6821,1.9506 0.3872,5.4379 1.9156,7.0256 -5.4395,-1.2882 -5.3829,-5.6689 -10.5581,-7.9722 -3.8977,-1.7347 -5.4822,-2.6757 -7.321,-4.2911 0.2851,11.8491 1.7297,19.3187 13.1899,22.1612 6.1966,1.3503 7.4236,-3.5022 6.951,-5.4449 1.5597,0.5447 3.1747,2.7038 2.2802,5.5878 6.6468,-1.161 11.046,3.8601 9.6683,8.8674 -0.4345,2.1962 -3.2714,5.6078 -8.5657,2.4424 6.518,-0.0153 5.356,-4.4588 3.847,-6.2315 -1.35,-1.5249 -3.5073,-1.7726 -4.6383,-1.0746 -2.154,1.0915 -1.4362,3.7827 -0.1882,4.8817 -3.5294,0.4459 -4.1083,-1.2647 -6.0037,-4.0087 -6.0609,-0.428 -14.3865,-2.7072 -16.1362,-5.1139 0.3822,2.4214 0.9159,6.1143 1.5197,8.4461 10.8898,-1.4179 9.6579,11.8521 3.4168,13.0214 2.4979,-6.2942 -2.0199,-6.9565 -4.1622,-5.9019 0.5295,6.4903 0.6235,16.6799 -6.7455,21.3243 -7.369,-4.6444 -7.275,-14.834 -6.7454,-21.3243 -2.1424,-1.0546 -6.66,-0.3923 -4.1621,5.9019 -6.2412,-1.1693 -7.473,-14.4393 3.4166,-13.0214 0.6039,-2.3318 1.1376,-6.0247 1.5198,-8.4461 -1.7498,2.4067 -10.0753,4.6859 -16.1363,5.1139 -1.8952,2.744 -2.4742,4.4546 -6.0035,4.0087 1.2479,-1.099 1.9657,-3.7902 -0.1883,-4.8817 -1.1309,-0.698 -3.2884,-0.4503 -4.6383,1.0746 -1.509,1.7727 -2.671,6.2162 3.847,6.2315 -5.2944,3.1654 -8.1313,-0.2462 -8.5656,-2.4424 -1.3778,-5.0073 3.0214,-10.0284 9.6682,-8.8674 -0.8945,-2.884 0.7204,-5.0431 2.2803,-5.5878 -0.4728,1.9427 0.7543,6.7952 6.951,5.4449 11.46,-2.8425 12.9047,-10.3121 13.1898,-22.1612 -1.8388,1.6154 -3.4233,2.5564 -7.321,4.2911 -5.1752,2.3033 -5.1186,6.684 -10.5582,7.9722 1.5284,-1.5877 2.5978,-5.075 1.9157,-7.0256 -3.4864,3.8656 -12.6691,8.4955 -18.2955,7.4723 4.1836,-2.5344 7.8565,-4.8565 5.3038,-6.525 -3.8364,-0.6705 -10.1361,-0.402 -11.7321,3.5078 -1.9357,5.309 1.7172,6.592 4.994,6.2544 -5.1684,4.6672 -11.8163,0.201 -9.9869,-7.2315 2.3059,-7.1138 9.2183,-7.7247 13.3024,-8.5008 -2.0044,-2.153 -4.7758,-10.4695 4.9971,-12.4481 -5.6003,7.617 0.508,11.1624 3.88,10.9587 24.4564,-2.8803 16.7085,-11.3155 21.6155,-20.7788 -4.3575,2.6077 -14.2959,3.9277 -18.5308,2.9786 -5.9731,-0.4246 -14.721,-3.2786 -17.4035,-1.1804 -1.3309,1.2022 -0.375,4.0107 2.5275,4.9394 -3.2425,0.9101 -7.1524,-0.3856 -7.0163,-4.1078 0.906,-9.5315 17.6979,-2.412 24.1238,-4.7354 -0.8372,-1.3334 -3.5839,-1.7998 -5.0387,-2.1162 2.3449,-0.7082 6.4684,0.0545 8.8133,1.1653 5.3306,-0.1323 11.7322,-4.044 9.1132,-8.9182 -1.5814,-2.5834 -5.3466,-2.2435 -8.0296,-1.192 0.8553,2.5436 0.0195,5.6542 -2.2033,6.7084 0.787,-2.2246 -0.3817,-4.5583 -1.7746,-5.7222 -6.9568,1.6725 -15.6697,0.9553 -23.8944,1.6617 -13.9773,1.7463 -15.9148,7.6433 -16.8728,11.4416 -3.6127,-5.1884 -0.8072,-8.2015 -0.4868,-9.0841 -5.6512,0.583 -10.2832,3.202 -12.514,6.2474 -6.8466,9.3465 0.2812,21.5003 13.9718,16.1226 1.0627,-0.9634 1.9856,-5.7656 2.9033,-7.0783 0.1792,2.3694 0.7221,5.0544 -0.284,6.6653 2.1861,-1.218 6.4022,-2.0926 9.6002,-2.2617 -3.2961,3.1482 -5.4317,4.0004 -8.5342,4.822 3.2833,0.755 5.3367,3.2102 6.3653,4.4677 -3,-0.8871 -6.3561,-4.1409 -9.1278,-2.3466 -14.3501,6.7499 -28.7116,-5.1304 -24.0249,-21.3479 -2.9412,-0.0565 -7.9813,-0.5226 -8.9103,-4.7164 3.4729,0.8604 12.905,-1.3231 19.7449,-5.7361 -2.1532,-1.6364 -3.2199,-4.1459 -3.3153,-7.1355 3.4951,3.5198 8.9223,4.8385 15.193,3.3354z" />
    <g
   id="g147">
     <path
   id="path14845"
   class="fil1 str0"
   d="M157.822 281.051c-1.1262,4.5641 -2.716,10.5583 -8.5327,14.1934" />
     <path
   id="path4358"
   class="fil1 str0"
   d="M163.885 281.05c1.1261,4.5642 2.7159,10.5585 8.5325,14.1935" />
     <line
   id="path4360"
   class="fil1 str0"
   x1="160.988"
   y1="282.234"
   x2="160.971"
   y2="295.742" />
     <line
   id="path4422"
   class="fil1 str0"
   x1="161.011"
   y1="333.324"
   x2="161.005"
   y2="344.976" />
     <path
   id="path14845_31"
   class="fil1 str0"
   d="M157.849 257.727c-1.1262,4.5641 -2.7159,10.5584 -8.5326,14.1935" />
     <path
   id="path4358_32"
   class="fil1 str0"
   d="M163.912 257.727c1.1262,4.5641 2.7159,10.5584 8.5327,14.1935" />
     <line
   id="path4360_33"
   class="fil1 str0"
   x1="161.016"
   y1="258.91"
   x2="160.999"
   y2="272.418" />
     <path
   id="path14843"
   class="fil1 str0"
   d="M158.515 304.865c-1.1261,6.5708 -3.3043,10.1523 -7.0614,14.1836" />
     <path
   id="path4356"
   class="fil1 str0"
   d="M163.791 304.864c1.1261,6.5708 3.3043,10.1522 7.0614,14.1836" />
     <line
   id="path4426"
   class="fil1 str0"
   x1="161.014"
   y1="303.725"
   x2="161.008"
   y2="314.631" />
    </g>
   </g>
   <g
   id="g107">
    <path
   id="path3035_39"
   class="fil5 str1"
   d="M279.547 243.222c-6.0622,-0.4376 -12.9363,-0.5562 -18.5795,-1.5875 -1.854,-0.3389 -9.4445,1.1325 -12.9213,0.1701l-12.3209 -3.1833 11.2137 -10.8029 3.0026 1.2678 3.403 1.437 3.5936 1.5174c6.6875,2.356 15.0543,3.5398 23.7075,4.5237l-1.0987 6.6577z" />
    <path
   id="path4215_40"
   class="fil0 str3"
   d="M215.684 211.058c18.8305,10.2051 22.127,6.5218 30.9886,7.8384 -2.0391,1.7413 -2.5798,1.9464 -2.769,4.2601 2.209,-1.3368 6.1851,-1.8067 10.3767,-1.7903 -2.8531,1.7114 -4.9951,4.2152 -3.3564,4.4685 1.5716,0.1885 6.3696,-0.7613 9.8233,-3.1855 -0.4748,3.4965 -2.6852,5.4278 -5.3609,6.4466 1.6738,0.7105 3.2076,1.7147 3.6114,2.7151 -2.5456,0.9885 -5.3775,1.1349 -8.4185,0.5803 2.9969,0.6894 4.9036,2.0848 7.1117,3.1343 -2.9659,1.9219 -5.2442,2.1793 -10.4215,0.5996 1.2361,0.5039 5.2783,4.9041 5.88,7.7782 -1.311,-0.3524 -4.8542,-2.5084 -6.9906,-2.2731 2.071,1.9661 3.1649,4.0836 2.954,8.5477 -2.1193,-2.0486 -4.3478,-4.9461 -7.3167,-6.3143 0.2478,1.7889 -0.1801,4.9617 -5.1586,5.3948 1.3389,-1.3959 2.9812,-6.4502 -2.4736,-8.2185 0.0719,1.7753 -0.0492,3.5733 -3.8552,5.071 1.6293,-4.8572 -15.1565,-9.1549 -30.5296,-9.329l1.3009 -29.6615c5.5877,1.5154 4.3022,-0.7156 14.604,3.9376z" />
    <path
   id="path4442_41"
   class="fil0 str0"
   d="M228.734 228.26c1.4998,-0.1514 5.1762,0.3758 6.8963,-3.6042 -1.0501,0.1725 -1.1631,0.718 -5.1764,-0.2893m-1.7199 3.8935l0 0 0 0z" />
    <path
   id="path4442_42"
   class="fil0 str0"
   d="M239.527 230.711c1.444,-0.4323 5.1537,-0.61 6.0901,-4.8435 -0.9985,0.3681 -1.0064,0.9252 -5.1378,0.695m-0.9523 4.1485l0 0 0 0z" />
    <path
   id="path4442_43"
   class="fil0 str0"
   d="M234.668 233.56c1.4439,0.4326 5.1537,0.6112 6.0888,4.845 -0.9983,-0.3684 -1.006,-0.9254 -5.1376,-0.6963m-0.9512 -4.1487l0 0 0 0z" />
    <path
   id="path4442_44"
   class="fil0 str0"
   d="M222.321 227.981c1.4439,0.4327 5.1537,0.6113 6.0888,4.845 -0.9983,-0.3682 -1.006,-0.9254 -5.1375,-0.6963m-0.9513 -4.1487l0 0 0 0z" />
   </g>
   <g
   id="g115">
    <path
   id="path3035_39_0"
   class="fil5 str1"
   d="M42.4688 243.222c6.0622,-0.4376 12.9363,-0.5562 18.5795,-1.5875 1.854,-0.3389 9.4445,1.1325 12.9213,0.1701l12.3209 -3.1833 -11.2137 -10.8029 -3.0026 1.2678 -3.403 1.437 -3.5936 1.5174c-6.6875,2.356 -15.0543,3.5398 -23.7075,4.5237l1.0987 6.6577z" />
    <path
   id="path4215_40_1"
   class="fil0 str3"
   d="M106.332 211.058c-18.8305,10.2051 -22.127,6.5218 -30.9886,7.8384 2.0391,1.7413 2.5798,1.9464 2.769,4.2601 -2.209,-1.3368 -6.1851,-1.8067 -10.3767,-1.7903 2.8531,1.7114 4.9951,4.2152 3.3564,4.4685 -1.5716,0.1885 -6.3696,-0.7613 -9.8233,-3.1855 0.4748,3.4965 2.6852,5.4278 5.3609,6.4466 -1.6738,0.7105 -3.2076,1.7147 -3.6114,2.7151 2.5456,0.9885 5.3775,1.1349 8.4185,0.5803 -2.9969,0.6894 -4.9036,2.0848 -7.1117,3.1343 2.9659,1.9219 5.2442,2.1793 10.4215,0.5996 -1.2361,0.5039 -5.2783,4.9041 -5.88,7.7782 1.311,-0.3524 4.8542,-2.5084 6.9906,-2.2731 -2.071,1.9661 -3.1649,4.0836 -2.954,8.5477 2.1193,-2.0486 4.3478,-4.9461 7.3167,-6.3143 -0.2478,1.7889 0.1801,4.9617 5.1586,5.3948 -1.3389,-1.3959 -2.9812,-6.4502 2.4736,-8.2185 -0.0719,1.7753 0.0492,3.5733 3.8552,5.071 -1.6293,-4.8572 15.1565,-9.1549 30.5296,-9.329l-1.3009 -29.6615c-5.5877,1.5154 -4.3022,-0.7156 -14.604,3.9376z" />
    <path
   id="path4442_41_2"
   class="fil0 str0"
   d="M93.2827 228.26c-1.4998,-0.1514 -5.1762,0.3758 -6.8963,-3.6042 1.0501,0.1725 1.1631,0.718 5.1764,-0.2893m1.7199 3.8935l0 0 0 0z" />
    <path
   id="path4442_42_3"
   class="fil0 str0"
   d="M82.4895 230.711c-1.444,-0.4323 -5.1537,-0.61 -6.0901,-4.8435 0.9985,0.3681 1.0064,0.9252 5.1378,0.695m0.9523 4.1485l0 0 0 0z" />
    <path
   id="path4442_43_4"
   class="fil0 str0"
   d="M87.3483 233.56c-1.4439,0.4326 -5.1537,0.6112 -6.0888,4.845 0.9983,-0.3684 1.006,-0.9254 5.1376,-0.6963m0.9512 -4.1487l0 0 0 0z" />
    <path
   id="path4442_44_5"
   class="fil0 str0"
   d="M99.6948 227.981c-1.4439,0.4327 -5.1537,0.6113 -6.0888,4.845 0.9983,-0.3682 1.006,-0.9254 5.1375,-0.6963m0.9513 -4.1487l0 0 0 0z" />
   </g>
   <g
   id="g123">
    <g
   id="g11_6">
     <path
   id="path7155_7"
   class="fil0 str0"
   d="M68.7 213.682c0.6819,-3.1161 6.3949,-7.8582 8.1119,-10.1035 8.3031,-10.8125 14.3786,-29.8808 17.4941,-43.0274 2.196,0.3599 5.5364,1.565 7.8864,2.9041 -1.3409,11.4929 -8.3166,29.6148 -17.8806,39.4163 9.2744,-9.0045 16.4409,-27.2407 17.8806,-39.4163 3.5951,0.2758 4.9749,0.5007 8.1727,0.9651 -3.7423,13.4366 -9.0862,31.9927 -20.1673,41.8351 -4.0655,3.3793 -9.6978,5.615 -15.8819,7.9097 -2.082,0.8898 -5.1336,1.4226 -5.6159,-0.4831z" />
     <path
   id="path7155_0_8"
   class="fil0 str0"
   d="M42.4238 211.278c1.1551,-4.3648 9.5218,-10.7305 12.0867,-13.803 12.4003,-14.7936 22.483,-36.711 27.6932,-55.1109 3.7166,-0.519 7.2352,-0.2458 10.6452,-0.1072 -2.6003,16.1671 -13.5725,41.372 -27.6932,54.662 13.6624,-12.1806 24.9113,-37.5357 27.6932,-54.662 5.065,0.6022 7.0017,1.0019 11.4937,1.8472 -6.1141,18.7728 -14.8061,44.6879 -31.074,57.9462 -5.9542,4.5366 -14.0531,7.3642 -22.9357,10.2425 -2.9977,1.1347 -7.3441,1.7074 -7.9091,-1.0148z" />
     <path
   id="path7155_1_9"
   class="fil0 str0"
   d="M13.136 197.729c2.1863,-4.3505 12.2984,-9.2597 15.6526,-11.9459 16.202,-12.9223 31.6174,-33.8481 41.1866,-52.1148 3.9688,0.2517 7.5527,1.2955 11.0547,2.1742 -6.6718,16.2116 -23.7071,40.4488 -41.0851,51.642 16.5067,-10.1583 33.8195,-34.5131 41.0851,-51.642 5.1116,1.7228 5.374,1.8714 9.8369,3.7272 -8.8495,19.686 -23.8174,44.5907 -43.6787,55.0643 -7.1979,3.5005 -16.2306,4.7395 -26.087,5.8635 -3.3633,0.5515 -7.9966,0.2211 -7.9651,-2.7685z" />
     <path
   id="path129"
   class="fil0 str0"
   d="M12.4469 171.691c2.5586,-2.5595 5.1765,-5.0735 7.9104,-7.5433 5.1875,-4.74 10.6096,-9.344 16.154,-13.7142 5.3279,-3.9821 9.6604,-8.5041 12.9407,-13.5644 2.2414,-3.4544 4.8305,-6.8248 7.7674,-10.1109 1.4375,-1.7135 6.0222,-4.4968 7.2342,-4.3449 0.5016,1.1779 3.8776,3.0242 4.4307,3.3344 -7.8768,14.8874 -24.1696,31.8669 -37.2904,36.4799 13.7437,-4.9376 29.6545,-22.2812 37.2904,-36.4799 5.2748,0.9799 6.182,0.5666 9.4131,2.2468 -8.883,12.8616 -19.6356,28.4891 -33.343,36.0791 -9.0454,4.5301 -19.4525,7.8651 -31.1047,10.0491 -2.0684,0.0193 -2.5546,-0.775 -1.4028,-2.4317z" />
     <path
   id="path7155_2_11"
   class="fil0 str0"
   d="M1.8239 138.814c2.9774,-2.3608 11.7117,-2.5852 14.959,-3.4033 15.6686,-3.9143 31.9087,-14.5216 44.6838,-24.3097 2.7067,1.4434 4.6357,2.4467 6.8067,4.1819 -9.925,9.553 -28.1753,22.8033 -44.2107,24.8839 15.1703,-1.5599 33.6789,-14.7773 44.2107,-24.8839 3.0232,2.8424 4.426,3.3646 6.9491,6.0934 -11.2049,9.5271 -19.5034,15.8529 -33.5261,22.2826 -3.24,1.9492 -10.0683,3.5609 -14.9086,3.8456 -6.2192,0.164 -12.9796,-1.8474 -20.2808,-4.2024 -2.547,-0.6856 -5.695,-2.3964 -4.6831,-4.4881z" />
     <path
   id="path7155_3_12"
   class="fil0 str0"
   d="M1.4712 116.933c3.0659,-1.8655 11.2606,-1.0715 14.3949,-1.4633 15.1196,-1.8597 31.5715,-9.9127 44.6854,-17.5978 2.3591,1.6609 4.0434,2.8209 5.8667,4.6931 -10.4206,7.7928 -29.0677,18.0863 -44.3115,18.1892 14.3728,0.2848 33.2574,-9.9484 44.3115,-18.1892 2.4883,3.0055 3.7379,3.6551 5.7719,6.497 -11.6144,7.6216 -20.1292,12.5833 -34.0095,16.9845 -3.2623,1.4505 -9.84,2.1728 -14.4004,1.8828 -5.8355,-0.5615 -11.9178,-3.2194 -18.4648,-6.261 -2.3001,-0.9339 -5.04,-2.8956 -3.8442,-4.7353z" />
     <path
   id="path7155_4_13"
   class="fil0 str0"
   d="M4.824 86.7233c3.3462,-0.9408 10.6302,2.3326 13.6159,2.8881 14.394,2.7105 28.0422,0.727 42.2711,-3.0019 0.1958,2.3529 0.2397,6.4401 2.4133,7.5447 -12.2241,3.7748 -26.9929,6.1021 -40.4818,2.6357 12.9493,3.4186 27.851,1.1775 40.4816,-2.6359 3.0498,0.7261 5.1531,0.4337 8.1734,-0.4919 -0.2238,2.2663 -0.018,4.4796 0.6143,6.5673 -15.0062,4.815 -34.3788,10.5336 -49.7964,4.2508 -5.1881,-2.3269 -9.9999,-6.8277 -15.1278,-11.8531 -1.8402,-1.6306 -3.7882,-4.4234 -2.1636,-5.9038z" />
     <path
   id="path7155_5_14"
   class="fil0 str0"
   d="M17.6404 58.1416c3.5624,0.6387 6.6677,1.9142 9.2972,3.7738 12.6642,8.9939 28.5628,12.6078 42.1268,16.7386 0.0469,4.3626 -0.4879,6.5578 2.3887,10.0697 -12.8402,-3.3508 -25.8264,-7.4402 -37.7459,-14.9167 11.9195,7.4765 24.9057,11.5657 37.7458,14.9164 1.001,1.0516 3.6333,4.6292 4.7585,6.1562 -17.2912,-2.4671 -36.179,-3.4592 -49.2102,-16.3932 -4.0333,-4.4897 -7.0034,-9.5423 -10.8889,-15.8852 -1.1137,-2.337 -0.6045,-3.8233 1.528,-4.4596z" />
     <path
   id="path7155_6_15"
   class="fil0 str0"
   d="M31.8611 44.9271c2.9664,0.949 5.4603,2.3535 7.4725,4.1691 9.6865,8.7745 21.8264,16.4134 33.359,21.8443 -0.0701,0.4761 -0.2669,1.0034 -0.205,1.5482 0.2913,1.7785 0.9769,3.7389 1.5397,4.6265 -10.5577,-4.2626 -20.4125,-7.6952 -30.5877,-17.905 9.7404,10.0274 20.03,13.6424 30.5877,17.905 0.333,0.9659 1.8517,5.104 2.4331,6.9737 -16.129,-5.401 -28.7286,-10.0324 -38.1946,-21.9778 -2.8773,-4.1002 -5.7673,-8.2175 -8.2816,-13.7883 -0.6544,-2.0137 -0.0289,-3.1454 1.8769,-3.3957z" />
     <path
   id="path7153_7_16"
   class="fil0 str0"
   d="M43.1109 32.6518c1.673,2.0931 2.9493,3.6281 5.7137,6.0113 3.8152,3.7671 6.5705,5.8385 10.3409,10.4187 4.3561,5.6355 15.2362,20.3043 20.5292,25.0926 -0.9234,0.3026 -3.8085,0.3485 -4.0749,0.7369 -9.518,-7.0452 -18.8201,-17.0117 -24.9901,-27.4191 6.2401,10.6122 15.5259,20.5068 24.9901,27.4193 0.2298,1.1616 0.8871,1.3631 0.1124,2.4009 -9.291,-7.2211 -19.5621,-12.2245 -26.6252,-23.2791 -4.1934,-7.3665 -6.6486,-12.3118 -7.5265,-20.5407 -0.131,-1.1748 0.6163,-1.8694 1.5304,-0.8408z" />
     <path
   id="path7153_8_17"
   class="fil0 str0"
   d="M50.7592 24.0134c1.5484,2.1835 2.7334,3.7876 5.3546,6.3219 3.5899,3.9749 6.2202,6.1973 9.718,10.9816 4.0211,5.8705 14.0301,21.1253 19.0358,26.2027 -0.9394,0.2504 -3.8225,0.1343 -4.1112,0.5072 -9.0925,-7.5674 -17.7996,-18.0392 -23.3541,-28.7757 5.6125,10.9448 14.3076,21.344 23.3541,28.7759 0.1619,1.1726 -2.0338,2.7013 -2.8677,3.694 -8.8558,-7.7303 -15.9786,-14.5922 -22.3871,-26.0248 -3.758,-7.5895 -5.9215,-12.6645 -6.3193,-20.9291 -0.0624,-1.1804 0.7241,-1.8319 1.5769,-0.7537z" />
     <path
   id="path7153_9_18"
   class="fil0 str0"
   d="M59.8107 15.0798c1.1333,2.3329 2.0112,4.0544 4.1165,6.89 2.802,4.3667 4.9661,6.9049 7.5498,12.0332 2.9107,6.2507 10.0523,22.4254 14.0344,28.0683 -0.9408,0.0945 -3.686,-0.4635 -4.0225,-0.1509 -7.4994,-8.6634 -14.1622,-20.0512 -17.7603,-31.204 3.6203,11.3615 10.2832,22.6778 17.7602,31.2042 -0.0333,1.1491 -0.107,3.3427 -1.066,4.165 -7.2461,-8.7828 -13.9381,-15.1152 -19.5526,-29.4856 -2.3819,-7.8578 -3.6399,-13.058 -2.6922,-21.0422 0.1299,-1.1411 0.9886,-1.6438 1.6327,-0.478z" />
     <path
   id="path7153_10_19"
   class="fil0 str0"
   d="M73.1364 5.903c0.367,2.6624 0.6793,4.6398 1.8457,8.1026 1.361,5.1954 2.6819,8.3821 3.5803,14.2632 0.859,7.0938 2.696,25.3288 4.812,32.1552 -0.9617,-0.1999 -2.3796,-2.4009 -2.8139,-2.1964 -4.6474,-10.8071 -8.4774,-23.3465 -8.6038,-35.6272 0.1728,12.3041 3.9572,24.8464 8.604,35.6273 -0.4047,1.127 -1.0559,2.4254 -2.2709,2.9403 -4.3312,-10.9516 -10.6705,-20.4637 -11.0652,-33.6355 0.184,-8.5197 0.621,-14.0586 4.1412,-21.6654 0.4977,-1.0889 1.5101,-1.3187 1.7706,0.0359z" />
     <path
   id="path7151_20"
   class="fil0 str0"
   d="M95.2901 1.7659c-5.6391,5.1153 -8.6443,13.5932 -9.269,20.9791 -0.4559,5.3892 0.933,10.9888 1.7641,16.2736 0.4836,3.0762 0.8829,6.1413 1.1422,9.2076 -0.0102,1.1825 -0.5595,5.0245 -1.3789,5.5864 -0.854,1.026 -1.2481,0.734 -2.2844,0.4213 -0.8368,0.1156 -2.1636,-1.5493 -2.5986,-2.64 -2.3137,-11.9456 -4.882,-25.4156 -0.5015,-34.841 -4.256,9.2722 -1.8122,22.8954 0.5015,34.841 0.435,1.0907 1.7618,2.7556 2.5986,2.64 -0.2331,0.3408 -2.1965,1.9496 -2.3268,2.0662 -3.0039,-4.2522 -8.0342,-21.787 -6.8018,-33.0003 0.3943,-4.5759 4.3342,-19.6342 19.1546,-21.5339z" />
     <g
   id="g27_21">
      <path
   id="path7151_11_22"
   class="fil0 str0"
   d="M91.1715 51.6976c-2.137,-3.6214 -4.1602,-7.8198 -5.1038,-11.4396 -0.8648,-3.0726 -2.3295,-13.8429 4.9725,-18.7743 -1.7504,4.7315 -1.3371,10.9915 0.0649,15.9481 1.0229,3.6166 3.0594,6.9098 4.7306,10.1376 0.2431,0.4696 0.4835,0.9403 0.7205,1.4122l-3.8363 1.7946c0,0 0,0 0,0l-1.5484 0.9214z" />
      <path
   id="_38951408_23"
   class="fil1 str0"
   d="M87.6865 34.499c0.5945,6.3332 3.4463,11.2752 6.0448,15.8041" />
     </g>
    </g>
    <g
   id="g145">
     <path
   id="_38862400"
   class="fil0"
   d="M71.3095 46.5022c-5.2563,2.118 -6.2549,11.4265 -2.2917,18.9871 -1.8804,-0.5673 -3.8644,-0.5755 -6.0638,0.3106 -5.9649,2.4036 -5.7509,15.1613 2.5778,21.7803 -12.9801,4.5685 -7.9345,18.3192 2.6677,21.7221 -12.7334,9.4622 -7.3032,23.0218 3.8368,21.8726 -7.8294,11.8912 0.7969,23.233 10.1082,17.8253 -2.1691,14.4347 11.999,18.3526 15.7329,9.7343l1.5391 -31.3391c-3.437,-0.1256 -7.6355,-3.7792 -8.5644,-9.2491 -3.6923,-21.7433 4.6571,-34.7113 8.9118,-42.1906 10.0838,-17.7268 -9.4083,-31.8321 -3.4938,-43.5967 -1.9088,1.8739 -3.7863,3.7851 -4.2726,6.5705 -5.5047,-0.3361 -10.6136,2.5974 -10.8348,9.1302 -3.0264,-1.9957 -6.1324,-3.0567 -9.8532,-1.5575z" />
     <g
   id="g148">
      <path
   id="_38949024_24"
   class="fil1 str1"
   d="M82.1452 148.996c-2.1729,14.4385 11.9979,18.3582 15.7322,9.739" />
      <path
   id="_38947680_25"
   class="fil1 str1"
   d="M84.2706 59.1492c-7.4226,-14.3039 -0.2649,-20.7077 7.7269,-20.2197 0.4863,-2.7854 2.3638,-4.6966 4.2726,-6.5705 -5.9145,11.7646 13.5776,25.8699 3.4938,43.5967 -4.2547,7.4793 -12.6041,20.4473 -8.9118,42.1906 0.9289,5.4699 5.1274,9.1235 8.5644,9.2491" />
      <path
   id="_38946736_26"
   class="fil1 str1"
   d="M96.7575 56.7619c4.7528,13.8619 -6.7771,22.8369 -9.8113,35.382 -2.3787,9.8342 -2.9982,21.8234 -0.3543,30.8278 1.8966,6.4596 5.2939,11.5974 12.4395,12.2669" />
      <path
   id="_38946016_27"
   class="fil1 str1"
   d="M94.6739 52.0536c-7.2721,-3.6156 -11.3114,2.9068 -10.297,10.7139 0.6086,4.6842 5.6743,12.0733 9.0362,14.8645" />
      <path
   id="_38945096_28"
   class="fil1 str1"
   d="M84.3765 62.7675c-5.1702,-0.8398 -11.4687,3.2684 -10.3949,10.2715 0.6578,4.2897 3.4512,9.208 8.1095,11.7438" />
      <path
   id="_38944152_29"
   class="fil1 str1"
   d="M78.4348 81.9652c-4.9337,1.019 -8.9651,4.5853 -8.9651,9.4134 0,4.5816 3.3173,7.4819 5.041,8.8989" />
      <path
   id="_38943432_30"
   class="fil1 str1"
   d="M78.7418 96.7999c-2.242,1.4369 -3.5313,2.3549 -5.0969,4.6378 -4.2638,6.2171 -3.8361,14.9472 1.9268,14.9472 2.3178,0 7.2117,-2.4227 9.3667,-3.9959" />
      <path
   id="_38942512_31"
   class="fil1 str1"
   d="M78.4795 115.724c-2.7866,4.2238 -3.6346,10.8495 -1.3911,14.0181 2.8844,4.0739 8.9579,0.4062 10.9235,-2.8612" />
      <path
   id="_38941000_32"
   class="fil1 str1"
   d="M84.6836 130.157c-1.4907,4.0162 -3.8145,12.2822 0.4204,15.5381 4.5393,3.4897 8.7661,-1.517 9.3518,-4.3923" />
      <path
   id="_38940080_33"
   class="fil1 str1"
   d="M93.8586 142.901c-0.3478,1.412 1.6138,5.357 4.0182,5.967" />
      <path
   id="_38939160_34"
   class="fil1 str1"
   d="M81.1627 48.0597c-3.0264,-1.9957 -6.1324,-3.0567 -9.8532,-1.5575 -6.8127,2.7451 -6.4729,17.5694 2.5512,25.0119" />
      <path
   id="_38938224_35"
   class="fil1 str1"
   d="M69.0178 65.4893c-1.8804,-0.5673 -3.8644,-0.5755 -6.0638,0.3106 -6.8129,2.7453 -5.5652,18.9981 6.6279,24.1835" />
      <path
   id="_38937288_36"
   class="fil1 str1"
   d="M65.5318 87.5802c-14.0014,4.928 -7.0289,20.5399 5.2673,22.324" />
      <path
   id="_38936568_37"
   class="fil1 str1"
   d="M68.1995 109.302c-14.5404,10.805 -5.3963,26.9527 8.8886,20.4399" />
      <path
   id="_38935848_38"
   class="fil1 str1"
   d="M72.0363 131.175c-8.8226,13.3997 3.2504,26.1018 13.6528,14.9255" />
      <path
   id="_38934928_39"
   class="fil1 str1"
   d="M73.3958 51.7647c0.0862,4.7542 1.7695,8.3425 4.7197,12.274" />
      <path
   id="_38934008_40"
   class="fil1 str1"
   d="M87.1948 42.8551c-1.0564,2.4514 0.0322,6.0631 1.275,8.6686" />
      <path
   id="_38933064_41"
   class="fil1 str1"
   d="M89.5563 57.5626c0.435,6.2536 3.9238,10.8603 7.0149,13.0932" />
      <path
   id="_38931976_42"
   class="fil1 str1"
   d="M79.3006 69.4619c1.4554,5.0424 4.8155,10.8253 11.2592,13.5514" />
      <path
   id="_38931088_43"
   class="fil1 str1"
   d="M73.2715 93.1385c3.5914,-3.9467 8.994,-3.4527 14.2069,-2.9036" />
      <path
   id="_38930200_44"
   class="fil1 str1"
   d="M75.2608 110.591c2.2716,-3.5683 5.5629,-6.554 9.9195,-7.7749" />
      <path
   id="_38929280_45"
   class="fil1 str1"
   d="M79.736 127.312c-0.1821,-3.6913 2.9625,-7.9185 5.8095,-9.0023" />
      <path
   id="_38928336_46"
   class="fil1 str1"
   d="M90.4271 130.852c0.5307,4.4964 -0.0339,10.9236 -3.0448,12.5098" />
      <path
   id="_38927416_47"
   class="fil1 str1"
   d="M82.1704 131.306c-2.3206,3.0017 -4.6418,10.1557 -5.1062,12.91" />
      <path
   id="_38926496_48"
   class="fil1 str1"
   d="M73.9304 116.109c-2.7112,2.4525 -5.3512,5.7718 -5.5687,8.9459" />
      <path
   id="_38925576_49"
   class="fil1 str1"
   d="M73.2063 99.1364c-3.2796,1.4974 -9.1414,1.1124 -12.1178,-0.1398" />
      <path
   id="_38924416_50"
   class="fil1 str1"
   d="M63.5746 71.1704c3.2902,6.5822 7.0013,8.9296 14.8599,10.7948" />
      <path
   id="_38922864_51"
   class="fil1 str1"
   d="M91.3221 145.855c-0.9539,3.7825 -0.9511,9.8556 -0.614,12.3333" />
     </g>
    </g>
   </g>
  </g>
 </g>
 <g
   id="cinta">
  <metadata
   id="CorelCorpID_2Corel-Layer" />
  <path
   id="path183"
   class="fil6"
   d="M111.379 262.041c-17.3736,0.6579 -33.3596,11.8967 -53.1784,12.9417 -3.4966,0.1845 -7.1126,0.0516 -10.8764,-0.5128 -3.4153,-0.512 -10.5521,-4.0981 -11.3221,-6.7581l6.9564 26.9143c1.3805,2.6953 8.7435,4.2832 12.4503,4.7073 24.2023,2.7688 38.246,-11.1783 55.9702,-11.8495 14.9146,-0.5647 21.527,10.8491 49.6285,10.673 28.1014,0.1761 34.7138,-11.2377 49.6284,-10.673 17.7242,0.6712 31.7679,14.6183 55.9703,11.8495 3.7066,-0.4241 11.0697,-2.012 12.4501,-4.7073l6.9564 -26.9141c-0.7702,2.6599 -7.9068,6.2459 -11.3219,6.7579 -3.7639,0.5644 -7.3798,0.6973 -10.8764,0.5128 -19.8189,-1.045 -35.8049,-12.2838 -53.1785,-12.9417 -14.9146,-0.5647 -21.527,10.8491 -49.6284,10.6729 -28.1015,0.1762 -34.7139,-11.2376 -49.6285,-10.6729z" />
  <path
   id="path185"
   class="fil6"
   d="M263.125 257.134l0.6898 17.8473c3.4966,0.1845 7.1125,0.0516 10.8764,-0.5128 3.4151,-0.512 10.5517,-4.098 11.3219,-6.7578l0.0002 -0.0008c0.1324,-0.4577 0.0762,-0.8879 -0.22,-1.2703 -0.3253,-0.42 -1.4551,-0.6094 -3.0489,-0.7388 -6.1348,-0.4981 -19.1448,-0.1082 -19.6194,-8.5668z" />
  <path
   id="path187"
   class="fil6"
   d="M264.117 251.867c-0.778,2.0574 -1.0747,3.796 -0.9923,5.2671l0.0001 0.0011c0.4746,8.4585 13.4846,8.0687 19.6194,8.5668 0.2108,-1.515 0.5098,-3.1363 0.889,-4.506 0.2223,-0.8015 0.4719,-1.5169 0.7474,-2.0743 8.1368,-16.4626 5.8219,-26.5133 12.6735,-31.5802 5.5415,-3.9262 18.9828,-3.6778 14.7376,8.9679 0.685,-1.0639 4.521,-9.7987 7.75,-18.7462 3.4022,-14.748 -19.4866,-12.2961 -30.5594,-7.1126 -14.422,6.751 -15.1466,16.9948 -19.7009,29.7096 -2.591,7.2339 -4.449,9.6143 -5.1644,11.5068z" />
  <path
   id="path189"
   class="fil6"
   d="M297.055 227.541c-6.8516,5.0669 -4.5367,15.1176 -12.6735,31.5802 -0.2755,0.5574 -0.5251,1.2728 -0.7474,2.0743 9.0574,3.5003 17.3891,-0.5039 20.3817,-2.4222 -9.1465,-5.0781 0.9779,-13.5787 4.9853,-18.7202 1.1257,-1.4443 2.0134,-2.336 2.7915,-3.5442 4.2452,-12.6457 -9.1961,-12.8941 -14.7376,-8.9679z" />
  <path
   id="path191"
   class="fil6"
   d="M58.8909 257.134c-0.4747,8.4586 -13.4847,8.0687 -19.6194,8.5668 -1.5939,0.1294 -2.7236,0.3188 -3.049,0.7388 -0.2961,0.3824 -0.3523,0.8126 -0.22,1.2703l0.0002 0.0008c0.7703,2.6598 7.9069,6.2458 11.3221,6.7578 3.7638,0.5644 7.3798,0.6973 10.8764,0.5128l0.6897 -17.8473z" />
  <path
   id="path193"
   class="fil6"
   d="M39.2715 265.702c6.1347,-0.4981 19.1447,-0.1083 19.6194,-8.5668 -0.4747,8.4585 -13.4847,8.0687 -19.6194,8.5668zm-14.3099 -38.1605c6.8516,5.0669 4.5367,15.1176 12.6735,31.5802 0.2755,0.5574 0.525,1.2728 0.7471,2.0744 0.3795,1.3696 0.6784,2.9909 0.8893,4.5059 -1.5939,0.1294 -2.7236,0.3188 -3.049,0.7388 -0.2961,0.3824 -0.3523,0.8126 -0.22,1.2703l0.0002 0.0007c0.7703,2.6599 7.9069,6.2459 11.3221,6.7579 3.7638,0.5644 7.3798,0.6973 10.8764,0.5128l0.6897 -17.8473c0,-0.0004 0,-0.0007 0,-0.0011 0.0825,-1.4711 -0.2143,-3.2097 -0.9921,-5.2671 -0.7156,-1.8925 -2.5736,-4.2729 -5.1646,-11.5068 -4.5542,-12.7148 -5.2787,-22.9586 -19.7009,-29.7096 -11.0727,-5.1835 -33.9615,-7.6354 -30.5593,7.1126 3.229,8.9475 7.065,17.6823 7.75,18.7462 -4.2453,-12.6457 9.196,-12.8941 14.7376,-8.9679z" />
  <path
   id="path195"
   class="fil6"
   d="M24.9616 227.541c-5.5416,-3.9262 -18.9829,-3.6778 -14.7376,8.9679 0.778,1.2082 1.6657,2.0999 2.7916,3.5442 4.0073,5.1415 14.1316,13.6421 4.9852,18.7202 2.9926,1.9183 11.3244,5.9225 20.3817,2.4222 -0.2224,-0.8015 -0.4719,-1.5169 -0.7474,-2.0743 -8.1368,-16.4626 -5.8219,-26.5133 -12.6735,-31.5802z" />
  <g
   id="_38590272">
   <path
   id="_38722304"
   class="fil1 str4"
   d="M161.008 272.713c28.1014,0.1762 34.7138,-11.2376 49.6284,-10.6729 20.4388,0.7739 38.9573,16.1917 64.0549,12.4289 4.003,-0.6002 13.1195,-5.4239 11.1021,-8.0289 -1.795,-2.318 -28.0898,2.3894 -21.6761,-14.5738 0.7154,-1.8925 2.5734,-4.2729 5.1644,-11.5068 4.5543,-12.7148 5.2789,-22.9586 19.7009,-29.7096 11.0728,-5.1835 33.9616,-7.6354 30.5594,7.1126 -3.229,8.9475 -7.065,17.6823 -7.75,18.7462 -0.7781,1.2082 -1.6658,2.0999 -2.7915,3.5442 -4.0074,5.1415 -14.1318,13.6421 -4.9853,18.7202 -2.9926,1.9183 -11.3243,5.9225 -20.3817,2.4222" />
   <path
   id="_38721232"
   class="fil1 str4"
   d="M161.008 298.156c28.1014,0.1761 34.7138,-11.2376 49.6284,-10.673 17.7242,0.6712 31.7679,14.6184 55.9703,11.8495 3.7066,-0.4241 11.0697,-2.012 12.4501,-4.7072" />
   <line
   id="_38720360"
   class="fil1 str4"
   x1="286.014"
   y1="267.711"
   x2="279.057"
   y2="294.625" />
   <line
   id="_38719640"
   class="fil1 str4"
   x1="263.815"
   y1="274.982"
   x2="263.125"
   y2="257.133" />
   <path
   id="_38595888"
   class="fil1 str4"
   d="M311.793 236.509c4.2452,-12.6457 -9.1961,-12.8941 -14.7376,-8.9679 -6.8516,5.0669 -4.5367,15.1176 -12.6736,31.5802 -0.7462,1.51 -1.3022,4.1788 -1.6363,6.5803" />
   <path
   id="_38594800"
   class="fil1 str4"
   d="M161.008 272.713c-28.1015,0.1762 -34.7139,-11.2376 -49.6285,-10.6729 -20.4387,0.7739 -38.9572,16.1917 -64.0548,12.4289 -4.0032,-0.6002 -13.1196,-5.4239 -11.1023,-8.0289 1.7952,-2.318 28.0898,2.3894 21.6763,-14.5738 -0.7156,-1.8925 -2.5736,-4.2729 -5.1646,-11.5068 -4.5542,-12.7148 -5.2787,-22.9586 -19.7009,-29.7096 -11.0727,-5.1835 -33.9615,-7.6354 -30.5593,7.1126 3.229,8.9475 7.065,17.6823 7.75,18.7462 0.778,1.2082 1.6657,2.0999 2.7916,3.5442 4.0073,5.1415 14.1316,13.6421 4.9852,18.7202 2.9926,1.9183 11.3244,5.9225 20.3817,2.4222" />
   <path
   id="_38593736"
   class="fil1 str4"
   d="M161.008 298.156c-28.1015,0.1761 -34.7139,-11.2376 -49.6285,-10.673 -17.7242,0.6712 -31.7679,14.6184 -55.9702,11.8495 -3.7068,-0.4241 -11.0698,-2.012 -12.4503,-4.7072" />
   <line
   id="_38592864"
   class="fil1 str4"
   x1="36.0025"
   y1="267.711"
   x2="42.9591"
   y2="294.625" />
   <line
   id="_38592144"
   class="fil1 str4"
   x1="58.2012"
   y1="274.982"
   x2="58.8909"
   y2="257.133" />
   <path
   id="_38590392"
   class="fil1 str4"
   d="M10.224 236.509c-4.2453,-12.6457 9.196,-12.8941 14.7376,-8.9679 6.8516,5.0669 4.5367,15.1176 12.6735,31.5802 0.7463,1.51 1.3022,4.1788 1.6364,6.5803" />
  </g>
  <g
   id="_38862424">
   <path
   id="_38579600"
   class="fil0 str0"
   d="M285.445 245.826c2.4726,-0.9358 8.2526,-0.6829 9.2209,2.5217 0.6979,2.3092 -0.4532,4.0519 -2.5222,4.5042 -1.9913,0.4352 -5.5595,-0.2399 -7.3428,-1.467 -1.4122,-0.9717 -2.4197,-4.2701 0.6441,-5.5589z" />
   <path
   id="_38578808"
   class="fil0 str0"
   d="M287.217 238.84c2.4545,-0.9826 8.2382,-0.8392 9.2671,2.3464 0.7415,2.2956 -0.3762,4.0597 -2.4363,4.5512 -1.9827,0.473 -5.5631,-0.1345 -7.3693,-1.3273 -1.4304,-0.945 -2.5004,-4.2236 0.5385,-5.5703z" />
   <path
   id="_38577880"
   class="fil0 str0"
   d="M289.357 231.807c2.5098,-0.831 8.2741,-0.3352 9.1068,2.9074 0.5999,2.3365 -0.6232,4.0292 -2.7096,4.394 -2.0078,0.3512 -5.5445,-0.4735 -7.2745,-1.7745 -1.3701,-1.0303 -2.238,-4.3682 0.8773,-5.5269z" />
   <path
   id="_38570368"
   class="fil2 str0"
   d="M288.969 232.344c0.9074,0.3856 1.3898,2.2143 0.6515,2.9059 -0.851,0.7973 -1.7195,0.92 -2.7538,0.4716 -1.1366,-0.5787 -3.0219,-2.237 -4.0766,-3.571 1.2182,0.2915 4.1037,0.726 6.1789,0.1935z" />
   <path
   id="_38570040"
   class="fil2 str0"
   d="M287.159 239.264c0.9322,0.3211 1.5414,2.1115 0.8534,2.8531 -0.793,0.8549 -1.6508,1.0381 -2.714,0.6633 -1.1743,-0.4977 -3.1712,-2.0199 -4.3166,-3.2767 1.2356,0.2054 4.1444,0.4368 6.1772,-0.2397z" />
   <path
   id="_38572896"
   class="fil2 str0"
   d="M284.865 246.46c0.8991,0.4044 1.3431,2.2428 0.5905,2.9188 -0.8674,0.7793 -1.7382,0.8839 -2.7631,0.4139 -1.1241,-0.6023 -2.9744,-2.2997 -4.0009,-3.6554 1.2118,0.3169 4.0875,0.8116 6.1735,0.3227z" />
   <path
   id="_38572688"
   class="fil0 str0"
   d="M279.355 231.956c-1.9541,1.7807 -7.4211,3.6743 -9.5015,1.0516 -1.4993,-1.8899 -1.071,-3.934 0.686,-5.1165 1.691,-1.1381 5.257,-1.8245 7.3669,-1.3405 1.6709,0.3833 3.8223,3.0788 1.4486,5.4054z" />
   <path
   id="_38575808"
   class="fil2 str0"
   d="M279.268 231.477c-0.9857,0.0219 -2.1777,-1.4463 -1.7894,-2.3804 0.4475,-1.0768 1.1886,-1.546 2.3158,-1.563 1.2741,0.0598 3.6747,0.7954 5.1848,1.5774 -1.2302,0.2356 -4.0388,1.0268 -5.7112,2.366z" />
  </g>
  <g
   id="_38727224">
   <path
   id="_38579600_52"
   class="fil0 str0"
   d="M36.5712 245.826c-2.4726,-0.9358 -8.2526,-0.6829 -9.2209,2.5217 -0.6979,2.3092 0.4532,4.0519 2.5222,4.5042 1.9913,0.4352 5.5595,-0.2399 7.3428,-1.467 1.4122,-0.9717 2.4197,-4.2701 -0.6441,-5.5589z" />
   <path
   id="_38578808_53"
   class="fil0 str0"
   d="M34.7996 238.84c-2.4545,-0.9826 -8.2382,-0.8392 -9.2671,2.3464 -0.7415,2.2956 0.3762,4.0597 2.4363,4.5512 1.9827,0.473 5.5631,-0.1345 7.3693,-1.3273 1.4304,-0.945 2.5004,-4.2236 -0.5385,-5.5703z" />
   <path
   id="_38577880_54"
   class="fil0 str0"
   d="M32.6591 231.807c-2.5098,-0.831 -8.2741,-0.3352 -9.1068,2.9074 -0.5999,2.3365 0.6232,4.0292 2.7096,4.394 2.0078,0.3512 5.5445,-0.4735 7.2745,-1.7745 1.3701,-1.0303 2.238,-4.3682 -0.8773,-5.5269z" />
   <path
   id="_38570368_55"
   class="fil2 str0"
   d="M33.0474 232.344c-0.9074,0.3856 -1.3898,2.2143 -0.6515,2.9059 0.851,0.7973 1.7195,0.92 2.7538,0.4716 1.1366,-0.5787 3.0219,-2.237 4.0766,-3.571 -1.2182,0.2915 -4.1037,0.726 -6.1789,0.1935z" />
   <path
   id="_38570040_56"
   class="fil2 str0"
   d="M34.8574 239.264c-0.9322,0.3211 -1.5414,2.1115 -0.8534,2.8531 0.793,0.8549 1.6508,1.0381 2.714,0.6633 1.1743,-0.4977 3.1712,-2.0199 4.3166,-3.2767 -1.2356,0.2054 -4.1444,0.4368 -6.1772,-0.2397z" />
   <path
   id="_38572896_57"
   class="fil2 str0"
   d="M37.1516 246.46c-0.8991,0.4044 -1.3431,2.2428 -0.5905,2.9188 0.8674,0.7793 1.7382,0.8839 2.7631,0.4139 1.1241,-0.6023 2.9744,-2.2997 4.0009,-3.6554 -1.2118,0.3169 -4.0875,0.8116 -6.1735,0.3227z" />
   <path
   id="_38572688_58"
   class="fil0 str0"
   d="M42.6613 231.956c1.9541,1.7807 7.4211,3.6743 9.5015,1.0516 1.4993,-1.8899 1.071,-3.934 -0.686,-5.1165 -1.691,-1.1381 -5.257,-1.8245 -7.3669,-1.3405 -1.6709,0.3833 -3.8223,3.0788 -1.4486,5.4054z" />
   <path
   id="_38575808_59"
   class="fil2 str0"
   d="M42.7486 231.477c0.9857,0.0219 2.1777,-1.4463 1.7894,-2.3804 -0.4475,-1.0768 -1.1886,-1.546 -2.3158,-1.563 -1.2741,0.0598 -3.6747,0.7954 -5.1848,1.5774 1.2302,0.2356 4.0388,1.0268 5.7112,2.366z" />
  </g>
 </g>
 <g
   id="fondo">
  <metadata
   id="CorelCorpID_3Corel-Layer" />
  <polygon
   class="fil7"
   points="224.352,242.328 224.352,100.833 97.6643,100.833 97.6643,242.328 97.6752,242.578 97.6873,242.839 97.6959,243.023 97.7151,243.277 97.7521,243.533 97.7933,243.82 97.8201,243.981 97.8612,244.208 97.924,244.465 97.9913,244.713 98.0468,244.92 98.1069,245.129 98.198,245.37 98.3011,245.652 98.4427,246.007 98.5475,246.213 98.6495,246.419 98.7592,246.633 98.8764,246.85 98.9709,247.007 99.077,247.17 99.1958,247.352 99.3954,247.647 99.5532,247.858 99.6977,248.035 99.84,248.209 99.9908,248.386 100.155,248.559 100.33,248.738 100.505,248.909 100.68,249.071 100.875,249.242 101.049,249.382 101.22,249.521 101.392,249.652 101.616,249.804 101.822,249.936 101.997,250.047 102.198,250.173 102.425,250.293 102.613,250.393 102.819,250.492 103.05,250.602 103.306,250.707 103.527,250.79 103.723,250.866 103.922,250.94 104.131,250.998 104.385,251.066 104.605,251.124 104.825,251.177 105.088,251.223 105.284,251.255 105.495,251.288 105.761,251.327 105.983,251.342 106.196,251.354 106.454,251.369 106.713,251.377 151.959,251.377 152.22,251.389 152.458,251.4 152.717,251.416 152.972,251.434 153.207,251.469 153.446,251.508 153.659,251.546 153.827,251.575 153.977,251.604 154.152,251.652 154.293,251.692 154.425,251.729 154.543,251.762 154.682,251.803 154.809,251.84 154.948,251.885 155.175,251.972 155.383,252.058 155.621,252.151 155.773,252.219 155.906,252.284 156.198,252.438 156.371,252.536 156.531,252.624 156.673,252.703 156.771,252.763 156.973,252.897 157.16,253.03 157.352,253.167 157.591,253.346 157.803,253.521 157.983,253.682 158.167,253.847 158.356,254.024 158.537,254.222 158.721,254.425 158.884,254.605 159.031,254.78 159.189,254.995 159.339,255.199 159.466,255.382 159.62,255.606 159.75,255.832 159.86,256.031 159.971,256.23 160.111,256.495 160.219,256.731 160.328,256.997 160.419,257.215 160.499,257.433 160.578,257.674 160.646,257.929 160.718,258.176 160.779,258.402 160.831,258.667 160.866,258.876 160.905,259.103 160.941,259.322 160.951,259.423 160.969,259.63 160.978,259.808 160.988,260.003 160.997,260.183 161.008,260.426 161.019,260.183 161.028,260.003 161.037,259.808 161.047,259.63 161.065,259.423 161.075,259.322 161.111,259.103 161.15,258.876 161.185,258.667 161.237,258.402 161.298,258.176 161.37,257.929 161.438,257.674 161.517,257.433 161.597,257.215 161.688,256.997 161.797,256.731 161.905,256.495 162.045,256.23 162.156,256.031 162.266,255.832 162.396,255.606 162.55,255.382 162.677,255.199 162.827,254.995 162.985,254.78 163.133,254.605 163.295,254.425 163.478,254.222 163.66,254.024 163.849,253.847 164.033,253.682 164.213,253.521 164.425,253.346 164.664,253.167 164.856,253.03 165.043,252.897 165.245,252.763 165.344,252.703 165.485,252.624 165.645,252.536 165.819,252.438 166.11,252.284 166.243,252.219 166.395,252.151 166.633,252.058 166.841,251.972 167.068,251.885 167.207,251.84 167.334,251.803 167.473,251.762 167.592,251.729 167.723,251.692 167.864,251.652 168.039,251.604 168.189,251.575 168.357,251.546 168.57,251.508 168.809,251.469 169.044,251.434 169.299,251.416 169.558,251.4 169.796,251.389 170.057,251.377 215.303,251.377 215.562,251.369 215.82,251.354 216.033,251.342 216.255,251.327 216.521,251.288 216.732,251.255 216.928,251.223 217.191,251.177 217.411,251.124 217.631,251.066 217.885,250.998 218.095,250.94 218.293,250.866 218.489,250.79 218.71,250.707 218.967,250.602 219.197,250.492 219.403,250.393 219.591,250.293 219.818,250.173 220.019,250.047 220.194,249.936 220.4,249.804 220.624,249.652 220.796,249.521 220.967,249.382 221.141,249.242 221.336,249.071 221.511,248.909 221.686,248.738 221.861,248.559 222.025,248.386 222.176,248.209 222.318,248.035 222.463,247.858 222.621,247.647 222.82,247.352 222.939,247.17 223.045,247.007 223.14,246.85 223.257,246.633 223.366,246.419 223.468,246.213 223.573,246.007 223.715,245.652 223.818,245.37 223.909,245.129 223.969,244.92 224.025,244.713 224.092,244.465 224.155,244.208 224.196,243.981 224.223,243.82 224.264,243.533 224.301,243.277 224.32,243.023 224.329,242.839 224.341,242.578 "
   id="polygon218" />
  <polygon
   class="fil6"
   points="101.668,151.014 220.344,151.014 224.136,151.014 224.352,151.014 224.352,147.574 224.352,141.564 224.352,134.317 224.352,128.15 224.352,100.833 184.203,100.833 170.394,100.833 169.064,100.833 160.057,100.833 159.869,100.833 144.83,100.833 97.6643,100.833 97.6643,128.152 97.6643,134.318 97.6643,141.565 97.6643,147.575 97.6643,151.014 97.8769,151.014 "
   id="polygon220" />
 </g>
 <g
   id="contorno">
  <metadata
   id="CorelCorpID_4Corel-Layer" />
  <polygon
   id="polygon452"
   class="fil1 str5"
   points="224.352,242.328 224.352,100.833 97.6643,100.833 97.6643,242.328 97.6752,242.578 97.6873,242.839 97.6959,243.023 97.7151,243.277 97.7521,243.533 97.7933,243.82 97.8201,243.981 97.8612,244.208 97.924,244.465 97.9913,244.713 98.0468,244.92 98.1069,245.129 98.198,245.37 98.3011,245.652 98.4427,246.007 98.5475,246.213 98.6495,246.419 98.7592,246.633 98.8764,246.85 98.9709,247.007 99.077,247.17 99.1958,247.352 99.3954,247.647 99.5532,247.858 99.6977,248.035 99.84,248.209 99.9908,248.386 100.155,248.559 100.33,248.738 100.505,248.909 100.68,249.071 100.875,249.242 101.049,249.382 101.22,249.521 101.392,249.652 101.616,249.804 101.822,249.936 101.997,250.047 102.198,250.173 102.425,250.293 102.613,250.393 102.819,250.492 103.05,250.602 103.306,250.707 103.527,250.79 103.723,250.866 103.922,250.94 104.131,250.998 104.385,251.066 104.605,251.124 104.825,251.177 105.088,251.223 105.284,251.255 105.495,251.288 105.761,251.327 105.983,251.342 106.196,251.354 106.454,251.369 106.713,251.377 151.959,251.377 152.22,251.389 152.458,251.4 152.717,251.416 152.972,251.434 153.207,251.469 153.446,251.508 153.659,251.546 153.827,251.575 153.977,251.604 154.152,251.652 154.293,251.692 154.425,251.729 154.543,251.762 154.682,251.803 154.809,251.84 154.948,251.885 155.175,251.972 155.383,252.058 155.621,252.151 155.773,252.219 155.906,252.284 156.198,252.438 156.371,252.536 156.531,252.624 156.673,252.703 156.771,252.763 156.973,252.897 157.16,253.03 157.352,253.167 157.591,253.346 157.803,253.521 157.983,253.682 158.167,253.847 158.356,254.024 158.537,254.222 158.721,254.425 158.884,254.605 159.031,254.78 159.189,254.995 159.339,255.199 159.466,255.382 159.62,255.606 159.75,255.832 159.86,256.031 159.971,256.23 160.111,256.495 160.219,256.731 160.328,256.997 160.419,257.215 160.499,257.433 160.578,257.674 160.646,257.929 160.718,258.176 160.779,258.402 160.831,258.667 160.866,258.876 160.905,259.103 160.941,259.322 160.951,259.423 160.969,259.63 160.978,259.808 160.988,260.003 160.997,260.183 161.008,260.426 161.019,260.183 161.028,260.003 161.037,259.808 161.047,259.63 161.065,259.423 161.075,259.322 161.111,259.103 161.15,258.876 161.185,258.667 161.237,258.402 161.298,258.176 161.37,257.929 161.438,257.674 161.517,257.433 161.597,257.215 161.688,256.997 161.797,256.731 161.905,256.495 162.045,256.23 162.156,256.031 162.266,255.832 162.396,255.606 162.55,255.382 162.677,255.199 162.827,254.995 162.985,254.78 163.133,254.605 163.295,254.425 163.478,254.222 163.66,254.024 163.849,253.847 164.033,253.682 164.213,253.521 164.425,253.346 164.664,253.167 164.856,253.03 165.043,252.897 165.245,252.763 165.344,252.703 165.485,252.624 165.645,252.536 165.819,252.438 166.11,252.284 166.243,252.219 166.395,252.151 166.633,252.058 166.841,251.972 167.068,251.885 167.207,251.84 167.334,251.803 167.473,251.762 167.592,251.729 167.723,251.692 167.864,251.652 168.039,251.604 168.189,251.575 168.357,251.546 168.57,251.508 168.809,251.469 169.044,251.434 169.299,251.416 169.558,251.4 169.796,251.389 170.057,251.377 215.303,251.377 215.562,251.369 215.82,251.354 216.033,251.342 216.255,251.327 216.521,251.288 216.732,251.255 216.928,251.223 217.191,251.177 217.411,251.124 217.631,251.066 217.885,250.998 218.095,250.94 218.293,250.866 218.489,250.79 218.71,250.707 218.967,250.602 219.197,250.492 219.403,250.393 219.591,250.293 219.818,250.173 220.019,250.047 220.194,249.936 220.4,249.804 220.624,249.652 220.796,249.521 220.967,249.382 221.141,249.242 221.336,249.071 221.511,248.909 221.686,248.738 221.861,248.559 222.025,248.386 222.176,248.209 222.318,248.035 222.463,247.858 222.621,247.647 222.82,247.352 222.939,247.17 223.045,247.007 223.14,246.85 223.257,246.633 223.366,246.419 223.468,246.213 223.573,246.007 223.715,245.652 223.818,245.37 223.909,245.129 223.969,244.92 224.025,244.713 224.092,244.465 224.155,244.208 224.196,243.981 224.223,243.82 224.264,243.533 224.301,243.277 224.32,243.023 224.329,242.839 224.341,242.578 " />
  <line
   id="line236"
   class="fil1 str6"
   x1="224.352"
   y1="151.014"
   x2="97.6643"
   y2="151.014" />
 </g>
 <g
   id="elementos">
  <metadata
   id="CorelCorpID_5Corel-Layer" />
  <path
   id="path271"
   class="fil8"
   d="M76.9218 290.689m0.5677 -4.0613l2.2084 -0.9901c0.1308,0.7409 0.4003,1.2236 0.8085,1.4512 0.4055,0.2256 0.9523,0.2227 1.6431,-0.0151 0.73,-0.2514 1.2821,-0.6047 1.651,-1.0611 0.3716,-0.4545 0.5572,-0.9003 0.5572,-1.3375 0,-0.2823 -0.0784,-0.4932 -0.2354,-0.6356 -0.1544,-0.1461 -0.4265,-0.224 -0.8164,-0.2336 -0.2641,-0.0086 -0.8713,0.0287 -1.8158,0.1049 -1.2166,0.1008 -2.0695,0.0015 -2.5588,-0.2949 -0.6908,-0.4153 -1.0361,-1.0933 -1.0361,-2.0341 0,-0.606 0.1622,-1.2264 0.4866,-1.8667 0.3245,-0.6375 0.7928,-1.1999 1.4024,-1.6865 0.6123,-0.4848 1.3474,-0.8763 2.211,-1.1736 1.4128,-0.4865 2.4725,-0.5249 3.1867,-0.1178 0.7118,0.4108 1.086,1.1536 1.1225,2.2341l-2.2685 0.8862c-0.0968,-0.5782 -0.3061,-0.9461 -0.6253,-1.1019 -0.3191,-0.1584 -0.798,-0.1264 -1.4364,0.0933 -0.6593,0.2271 -1.1774,0.5466 -1.549,0.9624 -0.2406,0.2654 -0.361,0.5532 -0.361,0.8604 0,0.2822 0.1124,0.4843 0.3375,0.6061 0.2852,0.1563 0.9813,0.1822 2.0854,0.076 1.1041,-0.1034 1.9204,-0.0996 2.4489,0.0119 0.5285,0.1141 0.9419,0.373 1.2428,0.7813 0.2983,0.4093 0.4474,0.9888 0.4474,1.7387 0,0.6808 -0.1778,1.3813 -0.5363,2.0968 -0.3585,0.7184 -0.8634,1.3351 -1.5175,1.848 -0.6541,0.5159 -1.4705,0.9408 -2.4464,1.2769 -1.4208,0.4892 -2.5118,0.5189 -3.2733,0.0865 -0.7613,-0.4323 -1.2166,-1.2885 -1.3632,-2.5662zm9.8426 0.2426m1.0591 -0.4066l0 -11.8852 2.2399 -0.8598 0 11.8852 -2.2399 0.8598zm3.2217 -1.4198m8.4286 -6.9463l2.2228 0.0565c-0.3413,1.4021 -0.9077,2.5383 -1.7016,3.4119 -0.7913,0.8701 -1.7995,1.4938 -3.0194,1.8668 -1.5085,0.4612 -2.7495,0.301 -3.7207,-0.4786 -0.9712,-0.7822 -1.4581,-2.1082 -1.4581,-3.9761 0,-1.9785 0.4895,-3.6641 1.466,-5.0585 0.9765,-1.3914 2.26,-2.3317 3.853,-2.8188 1.3893,-0.4248 2.5193,-0.3413 3.3873,0.2539 0.5187,0.3478 0.905,0.9602 1.1644,1.8329l-2.2732 1.2622c-0.1323,-0.5766 -0.4129,-0.9779 -0.8415,-1.2038 -0.4261,-0.2268 -0.9448,-0.2452 -1.5534,-0.0592 -0.8415,0.2573 -1.5269,0.7823 -2.0509,1.5762 -0.524,0.7911 -0.786,1.8951 -0.786,3.3119 0,1.5027 0.2567,2.4951 0.7754,2.9729 0.5161,0.4815 1.1882,0.5942 2.0139,0.3418 0.6112,-0.1868 1.1352,-0.5491 1.5745,-1.0902 0.4393,-0.5383 0.7542,-1.2738 0.9475,-2.2018zm12.1235 2.4634m1.1318 0.0791l0 -11.8851 2.3933 0.1674 0 11.8851 -2.3933 -0.1674zm3.6471 0.087m3.7501 1.0048l0 -9.8734 -3.4053 -0.9125 0 -2.0117 9.1227 2.4444 0 2.0118 -3.3973 -0.9104 0 9.8735 -2.3201 -0.6217zm5.8936 1.8177m1.1134 -11.4577l2.2398 0.8598 0 6.4365c0,1.0211 0.0285,1.6961 0.0827,2.0185 0.0957,0.5238 0.3255,1.0022 0.6846,1.4334 0.3617,0.435 0.8552,0.7711 1.4803,1.011 0.6355,0.244 1.1161,0.29 1.4389,0.1344 0.323,-0.1526 0.5168,-0.4215 0.5813,-0.8006 0.0673,-0.3811 0.0982,-1.0415 0.0982,-1.9823l0 -6.5749 2.2398 0.8597 0 6.2428c0,1.4279 -0.0594,2.4124 -0.1808,2.9551 -0.1215,0.5428 -0.3436,0.9529 -0.6691,1.2348 -0.3255,0.2789 -0.762,0.4351 -1.3047,0.4676 -0.545,0.0316 -1.258,-0.1232 -2.1364,-0.4604 -1.0592,-0.4066 -1.8627,-0.845 -2.4104,-1.3181 -0.5476,-0.4731 -0.979,-0.9791 -1.2968,-1.5189 -0.3178,-0.5399 -0.527,-1.0602 -0.6277,-1.5582 -0.1473,-0.7373 -0.2197,-1.7695 -0.2197,-3.1006l0 -6.3396zm10.0467 16.1067m1.1837 0.2733l0 -11.8852 4.9234 1.1367c1.2376,0.2857 2.1355,0.6009 2.6962,0.9435 0.561,0.3426 1.0112,0.8256 1.3482,1.4485 0.337,0.6257 0.5042,1.287 0.5042,1.9898 0,0.8911 -0.2561,1.5708 -0.7657,2.0343 -0.5095,0.4606 -1.2753,0.6519 -2.2918,0.5666 0.5069,0.4214 0.9248,0.85 1.2537,1.2884 0.3289,0.4385 0.7713,1.1826 1.3294,2.2357l1.4155 2.6457 -2.7961 -0.6455 -1.6905 -2.9777c-0.6013,-1.0631 -1.0111,-1.7387 -1.2323,-2.0305 -0.221,-0.2918 -0.4556,-0.5092 -0.7037,-0.6579 -0.248,-0.1458 -0.639,-0.2803 -1.1783,-0.4047l-0.4718 -0.109 0 4.9616 -2.3404 -0.5403zm2.3404 -6.3196l1.7283 0.399c1.1216,0.2589 1.8227,0.3737 2.1031,0.3417 0.2777,-0.0328 0.4962,-0.1512 0.6552,-0.3524 0.1564,-0.2019 0.2373,-0.4794 0.2373,-0.8363 0,-0.4012 -0.1051,-0.7465 -0.3128,-1.0407 -0.2076,-0.2943 -0.5014,-0.517 -0.8817,-0.6713 -0.1887,-0.0684 -0.7576,-0.2136 -1.7066,-0.4328l-1.8228 -0.4207 0 3.0135zm16.743 9.3669m11.9194 -0.4162l-2.6107 0.0912 -1.037 -2.6647 -4.7485 0.1658 -0.979 2.7351 -2.5442 0.0888 4.6267 -12.0467 2.536 -0.0886 4.7567 11.7191zm-4.4165 -4.5472l-1.6372 -4.3539 -1.604 4.467 3.2412 -0.1131zm4.4874 4.6313m1.1789 -12.1143l4.3055 -0.8369c0.9697,-0.1885 1.7085,-0.2574 2.2192,-0.2045 0.6846,0.0717 1.2713,0.323 1.7576,0.7542 0.4889,0.428 0.861,0.9977 1.1164,1.7062 0.2526,0.7118 0.3802,1.6224 0.3802,2.7376 0,0.9769 -0.1195,1.844 -0.3585,2.5989 -0.2907,0.9198 -0.7062,1.7008 -1.2495,2.3405 -0.4075,0.4859 -0.959,0.9086 -1.6543,1.2706 -0.5188,0.2697 -1.2142,0.4878 -2.0862,0.6574l-4.4304 0.8611 0 -11.8851zm2.3551 1.5539l0 7.87 1.7575 -0.3416c0.6574,-0.1278 1.1327,-0.2562 1.4261,-0.3907 0.3803,-0.1708 0.6981,-0.3958 0.9507,-0.6774 0.2527,-0.2815 0.4564,-0.7058 0.6167,-1.2682 0.1574,-0.5619 0.239,-1.3055 0.239,-2.2243 0,-0.9186 -0.0816,-1.6058 -0.239,-2.0676 -0.1603,-0.4615 -0.383,-0.8028 -0.6683,-1.0214 -0.288,-0.2207 -0.6518,-0.3353 -1.0919,-0.3467 -0.3287,-0.0135 -0.9725,0.0756 -1.9341,0.2625l-1.0567 0.2054zm16.2349 4.9153m11.2074 -4.0792l-2.4547 0.8934 -0.9751 -2.3458 -4.4648 1.6251 -0.9206 3.0358 -2.3922 0.8707 4.3504 -13.4686 2.3844 -0.8678 4.4726 10.2572zm-4.1528 -3.1899l-1.5394 -3.8508 -1.5082 4.96 3.0476 -1.1092zm4.2716 2.9523m0.599 -3.9076l2.3299 -0.3927c0.1381,0.7763 0.4224,1.3319 0.8529,1.6699 0.4279,0.3353 1.0049,0.4804 1.7337,0.4295 0.7702,-0.054 1.3526,-0.2579 1.7418,-0.6144 0.3921,-0.354 0.588,-0.7495 0.588,-1.1867 0,-0.2823 -0.0828,-0.5145 -0.2485,-0.6994 -0.1628,-0.1879 -0.4499,-0.3394 -0.8613,-0.4545 -0.2787,-0.0801 -0.9192,-0.2069 -1.9157,-0.3862 -1.2836,-0.2285 -2.1836,-0.5585 -2.6997,-0.9873 -0.7288,-0.6021 -1.0932,-1.3736 -1.0932,-2.3144 0,-0.606 0.1711,-1.1825 0.5135,-1.7351 0.3423,-0.5497 0.8364,-0.9854 1.4796,-1.3071 0.646,-0.3191 1.4215,-0.5117 2.3326,-0.5754 1.4907,-0.1042 2.6087,0.1441 3.3622,0.7444 0.7509,0.6033 1.1457,1.4475 1.1843,2.5378l-2.3934 0.2725c-0.102,-0.6044 -0.323,-1.029 -0.6597,-1.2711 -0.3368,-0.2448 -0.8419,-0.3424 -1.5155,-0.2953 -0.6956,0.0487 -1.2422,0.228 -1.6343,0.5433 -0.2539,0.2003 -0.3809,0.4555 -0.3809,0.7627 0,0.2822 0.1188,0.5147 0.3561,0.6974 0.301,0.2334 1.0353,0.4477 2.2002,0.6402 1.1649,0.1954 2.0261,0.4201 2.5837,0.6744 0.5577,0.2571 0.9938,0.6279 1.3113,1.1176 0.3146,0.4899 0.472,1.1099 0.472,1.8598 0,0.6807 -0.1877,1.3331 -0.5659,1.9518 -0.3781,0.6212 -0.9109,1.1013 -1.601,1.4374 -0.6902,0.3388 -1.5514,0.5429 -2.5811,0.6149 -1.4989,0.1048 -2.65,-0.1606 -3.4534,-0.7991 -0.8033,-0.6383 -1.2836,-1.6175 -1.4382,-2.9349zm10.4754 3.2434m3.8235 0.6742l0 -9.8734 -3.4719 -0.6123 0 -2.0117 9.3009 1.64 0 2.0117 -3.4636 -0.6106 0 9.8734 -2.3654 -0.4171zm6.1522 1.1522m1.1487 0.3955l0 -11.8851 4.7776 1.645c1.2009,0.4136 2.0722,0.8214 2.6164,1.222 0.5443,0.4005 0.9812,0.9299 1.3082,1.5877 0.3271,0.6605 0.4893,1.339 0.4893,2.0419 0,0.891 -0.2485,1.5443 -0.7431,1.9552 -0.4945,0.408 -1.2375,0.5203 -2.224,0.3299 0.492,0.4738 0.8975,0.9455 1.2166,1.418 0.3193,0.4724 0.7485,1.2622 1.29,2.3729l1.3737 2.7919 -2.7133 -0.9343 -1.6405 -3.1523c-0.5836,-1.1251 -0.9812,-1.8431 -1.1958,-2.1578 -0.2145,-0.3145 -0.4421,-0.5561 -0.6828,-0.7305 -0.2407,-0.1714 -0.6201,-0.3462 -1.1435,-0.5264l-0.4579 -0.1577 0 4.9616 -2.2709 -0.782zm2.2709 -6.0779l1.6773 0.5775c1.0883,0.3747 1.7687,0.5619 2.0408,0.5589 0.2695,-0.0041 0.4814,-0.1 0.6358,-0.2849 0.1518,-0.1857 0.2303,-0.4547 0.2303,-0.8116 0,-0.4013 -0.1021,-0.7574 -0.3036,-1.0731 -0.2015,-0.3156 -0.4866,-0.5688 -0.8556,-0.7623 -0.1831,-0.088 -0.7352,-0.2918 -1.6561,-0.609l-1.7689 -0.609 0 3.0135zm7.9066 9.8332m11.2075 4.0792l-2.4547 -0.8934 -0.9752 -3.0558 -4.4647 -1.6251 -0.9206 2.3658 -2.3923 -0.8707 4.3505 -10.3017 2.3844 0.8678 4.4726 13.5131zm-4.1528 -6.213l-1.5394 -4.9713 -1.5082 3.8621 3.0476 1.1092z" />
  <g
   id="_38501632">
   <path
   id="_38551376"
   class="fil9 str7"
   d="M158.553 135.761c-2.3944,0.1635 -5.6211,0.356 -8.7448,0.4716 0.6449,1.7718 6.7299,2.629 11.3635,2.7053 4.6338,-0.0763 10.7187,-0.9335 11.3636,-2.7053 -3.1237,-0.1156 -6.3503,-0.3081 -8.7447,-0.4716 -0.8722,0.0389 -1.8873,0.0492 -2.6189,0.0261 -0.7315,0.0231 -1.7465,0.0128 -2.6187,-0.0261z" />
   <path
   id="_38549712"
   class="fil9 str7"
   d="M185.226 133.411c-2.5131,0.0832 -8.6378,-0.0056 -10.9445,-0.1156 -0.1301,0.1566 -1.4674,1.8829 -2.2955,3.0759 3.3688,0.1019 10.6303,0.1712 14.9508,-0.0929 2.4767,-0.212 4.3538,-1.5309 3.7706,-2.4537 -0.1655,-0.0801 -3.8086,-0.4691 -5.4814,-0.4137z" />
   <path
   id="_38547408"
   class="fil9 str7"
   d="M177.611 130.785l-0.727 3.0576c3.6976,0.279 8.5723,0.2773 12.8915,0.0537 3.3139,-0.1052 4.4022,-1.6334 4.426,-2.5491 0,0 -0.8842,-0.0234 -2.2442,-0.0912 -6.9599,-0.479 -10.5691,-0.3634 -14.3463,-0.471z" />
   <path
   id="_38547080"
   class="fil9 str7"
   d="M176.884 133.842c-0.7465,-0.0298 -6.3434,-0.3883 -8.5612,-0.701 -1.7758,1.7519 -4.8833,1.7116 -7.1515,2.5188 2.5216,0.3068 10.6739,1.1394 13.3671,0.575 2.2158,-0.2129 4.9456,-2.0672 2.3456,-2.3928z" />
   <path
   id="_38546288"
   class="fil9 str7"
   d="M177.222 133.889c2.4567,-0.2786 3.3931,-2.4572 0.8999,-2.4606 -2.9081,-0.0239 -5.3091,-0.0816 -8.1844,-0.3862 -0.667,0.7785 -1.2751,1.8108 -2.0743,2.6 4.3236,0.2481 5.1623,0.32 9.3588,0.2468z" />
   <path
   id="_38545496"
   class="fil9 str7"
   d="M179.525 128.542c-0.0526,0.0098 -0.9378,2.9157 -0.9379,2.9164 4.4289,0.2485 11.3881,0.3082 15.4518,-0.1162 1.8419,-0.159 2.7697,-1.6143 2.6929,-2.4376l-1.9832 0.0506c0,0 -12.1656,0.0087 -15.2236,-0.4132z" />
   <path
   id="_38544704"
   class="fil9 str7"
   d="M195.872 126.559c-3.5689,-0.1263 -9.8376,-0.1773 -12.5466,-0.0603 -1.0311,0.2118 -1.9889,0.3503 -1.9889,0.3503 -0.5951,0.2598 -0.2621,0.5642 -0.7264,2.1771 9.3771,0.1803 14.1207,0.116 15.4607,-0.0387 2.3555,-0.0867 2.9525,-2.1201 3.1042,-2.4499l-3.303 0.0215z" />
   <path
   id="_38542416"
   class="fil9 str7"
   d="M183.288 123.495l-0.3775 3.0347c4.6296,0.3395 12.4129,0.3397 16.2639,0.0075 1.2879,-0.3539 2.5598,-0.8588 2.78,-2.695 -2.9259,-0.1299 -5.9554,0.1231 -8.7407,0.1473 -4.5869,0.0396 -10.0575,-0.4901 -9.9257,-0.4945z" />
   <path
   id="_38541624"
   class="fil9 str7"
   d="M185.507 120.404c-0.9515,0.1113 -4.4247,2.5648 -1.0897,3.2791 4.4438,0.29 12.5393,0.8372 16.8566,0.1871 1.4901,-0.0744 3.2161,-1.0628 4.2919,-3.2407 -6.7803,0.3525 -13.2744,-0.0031 -20.0588,-0.2255z" />
   <path
   id="_38540352"
   class="fil9 str7"
   d="M178.96 131.413c2.1299,-0.3342 4.226,-1.947 1.7483,-2.756 -2.679,-0.1466 -7.1147,-0.6255 -9.7894,-0.5091 -0.4756,1.3046 0.0624,1.6768 -0.982,2.8941 2.9589,0.2626 5.5761,0.4201 9.0231,0.371z" />
   <path
   id="_38539424"
   class="fil9 str7"
   d="M181.279 129.009c3.6015,-0.5832 2.9274,-2.4721 1.632,-2.48 -6.0825,-0.773 -8.5811,-0.8224 -12.7108,-0.8813 -0.2611,0.9538 0.0026,2.12 -0.2935,2.9332 2.9286,0.3194 8.172,0.6137 11.3723,0.4281z" />
   <path
   id="_38538232"
   class="fil9 str7"
   d="M183.234 126.552c2.4278,-0.5773 3.6594,-3.0526 0.5738,-2.9071 -7.3961,-0.6805 -9.2719,-0.6315 -13.8846,-1.3291 -0.1227,0.9322 0.1344,2.4762 0.0394,3.6154 6.3457,0.4584 9.9371,0.7187 13.2714,0.6208z" />
   <path
   id="_38536472"
   class="fil9 str7"
   d="M185.796 120.591c6.3265,0.5483 13.5231,1.0948 19.244,0.2643 3.1939,-0.684 4.8286,-4.3967 4.8286,-4.3967l-7.2312 0.762c0.0892,0.0062 -10.9397,-0.5039 -13.1723,-0.7241 -0.1868,-0.0619 -3.8612,2.1952 -3.6691,4.0945z" />
   <path
   id="_38531008"
   class="fil9 str7"
   d="M184.304 123.658c2.1517,-0.0211 4.7906,-2.3313 2.215,-3.0719 0,0 -6.0009,-0.6029 -16.7791,-1.7439 0,0 -0.1825,2.5529 -0.2135,3.7388 3.8395,0.457 10.2373,0.9691 14.7776,1.077z" />
   <path
   id="_38530680"
   class="fil9 str7"
   d="M185.898 120.598c2.2755,0.1929 5.4729,-1.7268 3.4698,-2.7267 -2.4446,-0.6498 -10.1779,-2.6091 -14.9681,-2.2306 -3.216,0.497 -4.0121,2.0519 -4.084,3.6458 5.158,0.5673 8.5313,0.8002 15.5823,1.3115z" />
   <path
   id="_38529024"
   class="fil9 str7"
   d="M137.118 133.411c2.5132,0.0832 8.6379,-0.0056 10.9446,-0.1156 0.1301,0.1566 1.4675,1.8829 2.2955,3.0759 -3.3687,0.1019 -10.6302,0.1712 -14.9507,-0.0929 -2.4768,-0.212 -4.3538,-1.5309 -3.7706,-2.4537 0.1654,-0.0801 3.8085,-0.4691 5.4812,-0.4137z" />
   <path
   id="_38526720"
   class="fil9 str7"
   d="M144.731 130.785l0.7269 3.0576c-3.6976,0.279 -8.5723,0.2773 -12.8914,0.0537 -3.3139,-0.1052 -4.4021,-1.6334 -4.426,-2.5491 0,0 0.8842,-0.0234 2.2441,-0.0912 6.96,-0.479 10.5693,-0.3634 14.3464,-0.471z" />
   <path
   id="_38525536"
   class="fil9 str7"
   d="M145.459 133.842c0.7466,-0.0298 6.3435,-0.3883 8.5613,-0.701 1.7757,1.7519 4.8832,1.7116 7.1515,2.5188 -2.5217,0.3068 -10.674,1.1394 -13.3671,0.575 -2.2159,-0.2129 -4.9456,-2.0672 -2.3457,-2.3928z" />
   <path
   id="_38523600"
   class="fil9 str7"
   d="M145.121 133.889c-2.4567,-0.2786 -3.3931,-2.4572 -0.8999,-2.4606 2.9082,-0.0239 5.3091,-0.0816 8.1845,-0.3862 0.6669,0.7785 1.275,1.8108 2.0743,2.6 -4.3237,0.2481 -5.1623,0.32 -9.3589,0.2468z" />
   <path
   id="_38521360"
   class="fil9 str7"
   d="M142.818 128.542c0.0525,0.0098 0.9378,2.9157 0.938,2.9164 -4.429,0.2485 -11.3881,0.3082 -15.4518,-0.1162 -1.842,-0.159 -2.7698,-1.6143 -2.6929,-2.4376l1.983 0.0506c0,0 12.1658,0.0087 15.2237,-0.4132z" />
   <path
   id="_38520432"
   class="fil9 str7"
   d="M126.47 126.559c3.569,-0.1263 9.8377,-0.1773 12.5467,-0.0603 1.031,0.2118 1.9888,0.3503 1.9888,0.3503 0.5952,0.2598 0.2622,0.5642 0.7265,2.1771 -9.3771,0.1803 -14.1208,0.116 -15.4608,-0.0387 -2.3555,-0.0867 -2.9523,-2.1201 -3.104,-2.4499l3.3028 0.0215z" />
   <path
   id="_38518144"
   class="fil9 str7"
   d="M139.054 123.495l0.3776 3.0347c-4.6298,0.3395 -12.413,0.3397 -16.264,0.0075 -1.2879,-0.3539 -2.5599,-0.8588 -2.7801,-2.695 2.926,-0.1299 5.9555,0.1231 8.7407,0.1473 4.5869,0.0396 10.0575,-0.4901 9.9258,-0.4945z" />
   <path
   id="_38517352"
   class="fil9 str7"
   d="M136.837 120.404c0.9514,0.1113 4.4246,2.5648 1.0896,3.2791 -4.4439,0.29 -12.5394,0.8372 -16.8567,0.1871 -1.4901,-0.0744 -3.2159,-1.0628 -4.2919,-3.2407 6.7804,0.3525 13.2745,-0.0031 20.059,-0.2255z" />
   <path
   id="_38515104"
   class="fil9 str7"
   d="M143.382 131.413c-2.1299,-0.3342 -4.226,-1.947 -1.7482,-2.756 2.6789,-0.1466 7.1146,-0.6255 9.7893,-0.5091 0.4756,1.3046 -0.0625,1.6768 0.982,2.8941 -2.9589,0.2626 -5.5761,0.4201 -9.0231,0.371z" />
   <path
   id="_38513896"
   class="fil9 str7"
   d="M141.064 129.009c-3.6015,-0.5832 -2.9276,-2.4721 -1.6322,-2.48 6.0826,-0.773 8.5812,-0.8224 12.7109,-0.8813 0.2611,0.9538 -0.0026,2.12 0.2936,2.9332 -2.9287,0.3194 -8.1721,0.6137 -11.3723,0.4281z" />
   <path
   id="_38512304"
   class="fil9 str7"
   d="M139.109 126.552c-2.4279,-0.5773 -3.6594,-3.0526 -0.5738,-2.9071 7.3961,-0.6805 9.2718,-0.6315 13.8845,-1.3291 0.1227,0.9322 -0.1343,2.4762 -0.0393,3.6154 -6.3458,0.4584 -9.9371,0.7187 -13.2714,0.6208z" />
   <path
   id="_38511512"
   class="fil9 str7"
   d="M136.548 120.591c-6.3266,0.5483 -13.5231,1.0948 -19.2441,0.2643 -3.1937,-0.684 -4.8285,-4.3967 -4.8285,-4.3967l7.2313 0.762c-0.0892,0.0062 10.9396,-0.5039 13.1721,-0.7241 0.1868,-0.0619 3.8614,2.1952 3.6692,4.0945z" />
   <path
   id="_38510176"
   class="fil9 str7"
   d="M138.038 123.658c-2.1517,-0.0211 -4.7904,-2.3313 -2.2149,-3.0719 0,0 6.0008,-0.6029 16.7791,-1.7439 0,0 0.1826,2.5529 0.2135,3.7388 -3.8395,0.457 -10.2373,0.9691 -14.7777,1.077z" />
   <path
   id="_38508336"
   class="fil9 str7"
   d="M136.445 120.598c-2.2753,0.1929 -5.4727,-1.7268 -3.4697,-2.7267 2.4445,-0.6498 10.1779,-2.6091 14.9682,-2.2306 3.2159,0.497 4.012,2.0519 4.0839,3.6458 -5.1579,0.5673 -8.5314,0.8002 -15.5824,1.3115z" />
   <path
   id="_38501656"
   class="fil9 str7"
   d="M107.377 112.611c8.435,4.2075 22.4634,2.7001 29.4094,1.5532 11.7415,-2.1161 14.9267,-1.1999 17.4134,2.1238 2.4491,3.7206 -1.3979,11.4244 0.9647,14.492 1.1567,1.3261 3.4368,1.8094 4.3387,1.9234 0.2567,0.0324 1.12,0.0862 1.6688,0.0945 0.5488,-0.0083 1.4121,-0.0621 1.6688,-0.0945 0.9019,-0.114 3.182,-0.5973 4.3388,-1.9234 2.3624,-3.0676 -1.4844,-10.7714 0.9646,-14.492 2.4868,-3.3237 5.6719,-4.2399 17.4135,-2.1238 6.946,1.1469 20.9743,2.6543 29.4093,-1.5532 0.2943,0.0986 -3.867,4.9048 -11.6247,5.5863 -9.012,0.5605 -14.0026,-0.235 -24.471,-1.6461 -10.7515,-1.6926 -8.285,4.3651 -7.6742,11.7235 0.0721,4.596 -3.0631,7.0767 -7.9829,7.5508 -0.6257,0.0604 -1.4678,0.0808 -2.0422,0.0532 -0.5744,0.0276 -1.4165,0.0072 -2.0422,-0.0532 -4.9198,-0.4741 -8.0549,-2.9548 -7.9828,-7.5508 0.6106,-7.3584 3.0772,-13.4161 -7.6744,-11.7235 -10.4683,1.4111 -15.4588,2.2066 -24.4708,1.6461 -7.7577,-0.6815 -11.9191,-5.4877 -11.6248,-5.5863z" />
  </g>
 </g>
</svg>